<?xml version="1.0" encoding="utf-8"?>
<!-- Generator: Adobe Illustrator 18.1.0, SVG Export Plug-In . SVG Version: 6.00 Build 0)  -->
<!DOCTYPE svg PUBLIC "-//W3C//DTD SVG 1.1//EN" "http://www.w3.org/Graphics/SVG/1.1/DTD/svg11.dtd">
<svg version="1.1" id="Layer_1" xmlns="http://www.w3.org/2000/svg" xmlns:xlink="http://www.w3.org/1999/xlink" x="0px" y="0px"
	 viewBox="0 0 864 864" enable-background="new 0 0 864 864" xml:space="preserve">
<g>
	<circle fill="#B3D06E" cx="432.2" cy="367.9" r="245.9"/>
	<g>
		<path fill="#44404B" d="M455.3,112.3c9.8-13,18.6-24.7,29.5-39.1c5.1,16.5,9.4,30.4,14.5,46.5c11.8-10.7,22.6-20.6,35.7-32.5
			c2.4,16.7,4.5,31.3,6.9,47.8c14.1-9,26.5-16.9,40.8-26.1c-0.8,17.1-1.4,31.7-2.2,48.6c15.7-6.6,29.1-12.3,45.1-19
			c-3.8,16.9-6.9,31-10.7,48.1c16.7-3.9,30.8-7.2,47.7-11.2c-6.7,15.9-12.4,29.2-19.3,45.4c17.1-0.8,31.6-1.5,49-2.3
			c-9.1,14.1-17.1,26.3-26.5,40.9c16.6,2,31,3.8,49.1,6.1c-11.9,12.6-22.1,23.4-33.9,35.9c16,5,29.9,9.3,47,14.7
			c-14,10.5-25.6,19.3-39.3,29.6c15.2,7.7,28.5,14.4,44.3,22.4c-15.6,8-29,14.9-43.9,22.5c13,9.8,24.7,18.7,38.7,29.2
			c-15.9,5-30,9.5-46.6,14.8c11.3,12.2,21.2,22.9,33.2,35.8c-17.1,2.3-31.5,4.2-48.3,6.5c8.6,13.4,16.5,25.7,25.4,39.6
			c-16.1,0-30.6,0-47.5,0c6.1,14.7,11.6,28,18.2,44c-16.5-3.7-30.6-6.9-47.4-10.6c3.7,16.5,7,31.2,10.7,47.8
			c-15.2-6.4-28.6-12.1-43.7-18.4c0,16.1,0,30.6,0,47.8c-13.3-8.7-25.7-16.7-40-26c-2.3,16.7-4.2,30.8-6.5,47.9
			c-12.5-11.2-23.6-21.1-36-32.3c-4.8,15.5-9.1,29.4-14.3,46.2c-10.5-13.6-19.5-25.3-29.7-38.6c-7.7,15.2-14.4,28.3-22.2,43.6
			c-8-15.4-14.8-28.7-22.7-43.9c-10.2,13.5-19,25.3-29.4,39.1c-5.3-16.7-9.8-31-14.8-46.8c-12.2,11.4-22.9,21.4-35.8,33.4
			c-2.2-17.6-4-32.2-6.1-48.9c-13.5,8.7-25.8,16.7-41.1,26.6c0.8-17.2,1.4-32.1,2.2-48.9c-14.9,6.4-28.5,12.2-44.8,19.2
			c3.7-16.4,6.9-31,10.7-48c-15.8,3.7-30.4,7.1-47.8,11.2c6.7-16.1,12.4-29.9,18.4-44.2c-16.2,0-30.8,0-47.5,0
			c8.6-13.5,16.5-25.8,25.7-40.1c-16.6-2-31.5-3.8-46.3-5.6c-1-1.6-2-3.2-2.9-4.8c11.8-9.1,23.6-18.2,35.3-27.2
			c-1-1.5-1.9-3.1-2.9-4.6c-14.3-4.5-28.6-9-45.3-14.2c13.8-10.4,25.6-19.3,39.1-29.5c-14.8-7.6-28.3-14.5-43.9-22.4
			c14.9-7.7,27.9-14.5,43.2-22.4c-12.7-9.9-24.3-18.9-38.1-29.6c16.1-5,30.3-9.4,46.4-14.4c-11.1-12-21.1-22.7-33.2-35.8
			c16.8-2.3,31-4.2,48-6.5c-8.8-14.1-16.5-26.4-24.9-39.8c15.9,0,30.5,0,47.3,0c-6.1-14.5-11.8-28.3-18.5-44.2
			c16.7,3.9,31.4,7.4,47.9,11.3c-3.7-16.7-6.9-30.9-10.8-48.1c16.2,6.9,29.6,12.6,44.9,19.1c-0.8-16.9-1.4-31.5-2.2-48.7
			c14.3,9.1,26.7,16.9,40.8,25.9c2.3-16.3,4.4-30.7,6.9-48c12.6,11.7,23.3,21.7,35.6,33.1c5-16.2,9.3-30.3,14.5-47
			c10.2,13.5,19.2,25.5,29.4,39c7.6-14.5,14.5-27.6,22.6-43.1C440.5,83.7,447.4,97,455.3,112.3z M431.9,599.5
			c123.5,1.7,230.8-101.2,232.4-223.1c1.7-132-98.6-237.7-227.3-239.5c-128.8-1.8-233.7,99.8-235.5,228
			C199.8,494,301.6,597.7,431.9,599.5z"/>
		<path fill="#44404B" d="M445.4,625.4c-19.1,53.8-37.1,104.8-56,158.2c-12.4-12.8-23.9-23.2-33.5-35.1
			c-8.3-10.3-17.7-11.9-29.6-9.5c-17.1,3.5-34.4,6.2-54.5,9.8c18.9-53.6,37-104.9,56-158.8C362.4,618.1,402.6,624,445.4,625.4z"/>
		<path fill="#44404B" d="M473.7,783.3c-19-53.8-36.7-104-55.3-156.5c21.2-2.8,41.5-3.3,60.4-8.6c19.2-5.5,37-15.8,57.6-24.9
			c17.7,50.2,35.9,101.4,54.9,155.3c-20.3-3.4-38-6-55.6-9.5c-11.4-2.3-20.1-0.8-28.1,9C498.1,759.9,486.6,770.2,473.7,783.3z"/>
		<path fill="#44404B" d="M431,579.3c-119.5-1.7-210.6-95.8-209.3-216.2c1.2-114.1,98.1-208,213-206.6
			c118.1,1.5,211.6,98.2,209.8,216.8C642.9,487.6,546.1,581,431,579.3z M433.1,550.9c100,0.1,182.8-82.1,183.1-181.7
			c0.3-100.7-82-183.7-182.6-184.2c-100.9-0.5-183.1,81.5-183.2,182.9C250.2,469.4,331.5,550.9,433.1,550.9z"/>
	</g>
</g>
</svg>
