<?xml version="1.0" encoding="utf-8"?>
<!-- Generator: Adobe Illustrator 18.1.0, SVG Export Plug-In . SVG Version: 6.00 Build 0)  -->
<!DOCTYPE svg PUBLIC "-//W3C//DTD SVG 1.1//EN" "http://www.w3.org/Graphics/SVG/1.1/DTD/svg11.dtd">
<svg version="1.1" id="Layer_1" xmlns="http://www.w3.org/2000/svg" xmlns:xlink="http://www.w3.org/1999/xlink" x="0px" y="0px"
	 viewBox="0 0 57.7 33.3" enable-background="new 0 0 57.7 33.3" xml:space="preserve">
<g>
	<g>
		<g>
			<path fill="#B3D16F" d="M14.4,15.2c0.4-1.6,1.3-3.1,2.7-4.1c1.7-1.3,3.7-1.8,5.9-1.8c0.5,0,0.9,0.1,0.3-0.3
				c-0.4-0.3-0.9-0.5-1.3-0.8c-0.8-0.6-1.3-1.4-1.6-2.3c-0.7-2.2,0.4-4,1.6-5.8c0.6,1,1.1,1.8,2.1,2.6C25,3.2,26,3.6,27,3.9
				c1,0.2,2.1,0.2,2.9,0.8c0.8,0.7,0.7,1.5,0.6,2.4c1.6-1.5,3.6-2.6,4.8-4.4c0.5,0.5,0.2,1.1,0.3,1.7c0,0.4,0.6,1,0.4,1.4
				c-0.2,0.4-1.2,0.6-1.6,0.8c-0.6,0.3-1.2,0.6-1.8,1C32.1,8,30.2,9.7,31,10.3c0.7,0.5,3-0.6,3.7-0.9c1.8-0.5,4.3-0.3,5.8,0.8
				c2.4,1.9,2.8,4.6,2.6,7.2c-0.2,3-1.1,5.9-2.3,8.7c-1,2.3-2.3,5.2-4.9,6.6c-1.1,0.6-2.4,0.7-3.7,0.4c-1.4-0.3-2.8-1.2-4.3-1.2
				c-0.7,0-1.3,0.5-1.9,0.8c-0.7,0.3-1.4,0.6-2.1,0.6c-1.4,0.1-2.7-0.5-3.7-1.4c-2.4-2.1-3.5-5.6-4.5-8.4c-0.5-1.5-0.9-3.1-1.2-4.7
				C14.5,17.6,14.2,16.3,14.4,15.2z"/>
		</g>
	</g>
	<g>
		<path fill="#FFFFFF" d="M4.2,23.9h0.7l-0.3-1.1H2.3L2,23.9h0.8v1.3H0v-1.3h0.5l2-6h1.9l2,6H7v1.3H4.2V23.9z M2.7,21.6h1.5
			l-0.7-2.4L2.7,21.6z"/>
		<path fill="#FFFFFF" d="M10.1,20.2h2.4v3.7H13v1.3h-2.1v-0.4c-0.2,0.2-0.4,0.3-0.6,0.4c-0.2,0.1-0.5,0.1-0.8,0.1
			c-0.3,0-0.5,0-0.8-0.1s-0.5-0.2-0.6-0.4c-0.2-0.2-0.3-0.4-0.4-0.7c-0.1-0.3-0.2-0.6-0.2-0.9v-1.6H6.8v-1.3h2.2v3
			c0,0.3,0.1,0.6,0.3,0.8s0.4,0.2,0.7,0.2c0.2,0,0.4-0.1,0.5-0.2c0.2-0.1,0.3-0.3,0.3-0.5v-2h-0.8V20.2z"/>
		<path fill="#FFFFFF" d="M16.2,17.7h2.2v6.2h1v1.3h-2.5V25c-0.2,0.1-0.4,0.2-0.5,0.2c-0.2,0.1-0.4,0.1-0.6,0.1
			c-0.4,0-0.7-0.1-1.1-0.2c-0.3-0.1-0.6-0.3-0.8-0.6c-0.2-0.2-0.4-0.5-0.5-0.8c-0.1-0.3-0.2-0.7-0.2-1s0.1-0.7,0.2-1
			c0.1-0.3,0.3-0.6,0.5-0.8s0.5-0.4,0.8-0.6s0.7-0.2,1-0.2c0.2,0,0.4,0,0.6,0.1s0.4,0.1,0.5,0.2V19h-0.7V17.7z M15.9,24
			c0.2,0,0.4-0.1,0.6-0.2c0.2-0.1,0.3-0.2,0.4-0.4v-1.5c-0.1-0.2-0.3-0.3-0.4-0.4c-0.2-0.1-0.4-0.1-0.6-0.1c-0.2,0-0.3,0-0.5,0.1
			c-0.1,0.1-0.3,0.1-0.4,0.3c-0.1,0.1-0.2,0.2-0.3,0.4s-0.1,0.3-0.1,0.5c0,0.2,0,0.4,0.1,0.5c0.1,0.2,0.2,0.3,0.3,0.4
			s0.2,0.2,0.4,0.3C15.5,23.9,15.7,24,15.9,24z"/>
		<path fill="#FFFFFF" d="M19.7,20.2h2.3v3.7h0.7v1.3h-3v-1.3h0.8v-2.4h-0.8V20.2z M20.3,18.6c0-0.1,0-0.2,0.1-0.3
			c0-0.1,0.1-0.2,0.2-0.3s0.2-0.1,0.3-0.2c0.1,0,0.2-0.1,0.3-0.1c0.1,0,0.2,0,0.3,0.1c0.1,0,0.2,0.1,0.3,0.2s0.1,0.2,0.2,0.3
			c0,0.1,0.1,0.2,0.1,0.3s0,0.2-0.1,0.3c0,0.1-0.1,0.2-0.2,0.3s-0.2,0.1-0.3,0.2c-0.1,0-0.2,0.1-0.3,0.1c-0.1,0-0.2,0-0.3-0.1
			c-0.1,0-0.2-0.1-0.3-0.2s-0.1-0.2-0.2-0.3C20.4,18.8,20.3,18.7,20.3,18.6z"/>
		<path fill="#FFFFFF" d="M22.9,22.7c0-0.4,0.1-0.7,0.2-1c0.1-0.3,0.3-0.6,0.6-0.8c0.2-0.2,0.5-0.4,0.8-0.6c0.3-0.1,0.7-0.2,1.1-0.2
			s0.8,0.1,1.1,0.2c0.3,0.1,0.6,0.3,0.8,0.6c0.2,0.2,0.4,0.5,0.5,0.8s0.2,0.7,0.2,1s-0.1,0.7-0.2,1c-0.1,0.3-0.3,0.6-0.5,0.8
			c-0.2,0.2-0.5,0.4-0.8,0.6c-0.3,0.1-0.7,0.2-1.1,0.2c-0.4,0-0.8-0.1-1.1-0.2c-0.3-0.1-0.6-0.3-0.8-0.6s-0.4-0.5-0.5-0.8
			C23,23.4,22.9,23.1,22.9,22.7z M24.4,22.7c0,0.2,0,0.4,0.1,0.5c0.1,0.2,0.2,0.3,0.3,0.4c0.1,0.1,0.2,0.2,0.4,0.3
			c0.1,0.1,0.3,0.1,0.5,0.1c0.2,0,0.3,0,0.5-0.1c0.1-0.1,0.3-0.2,0.4-0.3c0.1-0.1,0.2-0.3,0.3-0.4c0.1-0.2,0.1-0.3,0.1-0.5
			c0-0.2,0-0.4-0.1-0.5s-0.1-0.3-0.3-0.4c-0.1-0.1-0.2-0.2-0.4-0.3c-0.1-0.1-0.3-0.1-0.5-0.1c-0.2,0-0.3,0-0.5,0.1
			c-0.1,0.1-0.3,0.1-0.4,0.3c-0.1,0.1-0.2,0.3-0.3,0.4S24.4,22.5,24.4,22.7z"/>
		<path fill="#FFFFFF" d="M37.1,22.7c0-0.4,0.1-0.7,0.2-1s0.3-0.6,0.6-0.8c0.2-0.2,0.5-0.4,0.8-0.6c0.3-0.1,0.7-0.2,1.1-0.2
			c0.4,0,0.8,0.1,1.1,0.2c0.3,0.1,0.6,0.3,0.8,0.6c0.2,0.2,0.4,0.5,0.6,0.8c0.1,0.3,0.2,0.7,0.2,1s-0.1,0.7-0.2,1
			c-0.1,0.3-0.3,0.6-0.5,0.8c-0.2,0.2-0.5,0.4-0.8,0.6c-0.3,0.1-0.7,0.2-1.1,0.2c-0.4,0-0.8-0.1-1.1-0.2c-0.3-0.1-0.6-0.3-0.8-0.6
			c-0.2-0.2-0.4-0.5-0.5-0.8C37.2,23.4,37.1,23.1,37.1,22.7z M38.5,22.7c0,0.2,0,0.4,0.1,0.5c0.1,0.2,0.2,0.3,0.3,0.4
			c0.1,0.1,0.2,0.2,0.4,0.3c0.1,0.1,0.3,0.1,0.5,0.1c0.2,0,0.3,0,0.5-0.1c0.1-0.1,0.3-0.2,0.4-0.3c0.1-0.1,0.2-0.3,0.3-0.4
			c0.1-0.2,0.1-0.3,0.1-0.5c0-0.2,0-0.4-0.1-0.5s-0.1-0.3-0.3-0.4c-0.1-0.1-0.2-0.2-0.4-0.3c-0.1-0.1-0.3-0.1-0.5-0.1
			c-0.2,0-0.3,0-0.5,0.1c-0.1,0.1-0.3,0.1-0.4,0.3c-0.1,0.1-0.2,0.3-0.3,0.4S38.5,22.5,38.5,22.7z"/>
		<path fill="#FFFFFF" d="M47.4,22h-1.4v-0.5c-0.1,0-0.3,0-0.4,0c-0.1,0-0.2,0-0.3,0.1c-0.1,0-0.2,0.1-0.2,0.2
			c-0.1,0.1-0.1,0.2-0.1,0.3v1.8h1v1.3h-3.3v-1.3h0.8v-2.4h-0.7v-1.3h2.2v0.4c0.1-0.1,0.3-0.2,0.5-0.3c0.2-0.1,0.4-0.1,0.6-0.1
			c0.2,0,0.4,0,0.7,0c0.2,0,0.4,0,0.6,0V22z"/>
		<path fill="#FFFFFF" d="M47.9,20.2h2.3v0.4c0.2-0.2,0.4-0.3,0.7-0.4c0.3-0.1,0.5-0.1,0.8-0.1c0.4,0,0.7,0.1,1,0.2
			c0.3,0.1,0.5,0.3,0.6,0.6c0.1-0.1,0.2-0.2,0.4-0.3c0.1-0.1,0.3-0.2,0.4-0.3c0.2-0.1,0.3-0.1,0.5-0.2c0.2,0,0.3-0.1,0.5-0.1
			c0.6,0,1.1,0.2,1.4,0.5s0.5,0.8,0.5,1.5v1.8h0.7v1.3h-2.3v-2.9c0-0.3-0.1-0.5-0.2-0.7c-0.1-0.2-0.4-0.2-0.6-0.2
			c-0.2,0-0.4,0-0.5,0.1c-0.2,0.1-0.3,0.2-0.5,0.4c0,0,0,0.1,0,0.1s0,0.1,0,0.1v1.7h0.7v1.3H52v-2.9c0-0.1,0-0.3-0.1-0.4
			c0-0.1-0.1-0.2-0.2-0.3c-0.1-0.1-0.2-0.1-0.3-0.2c-0.1,0-0.2-0.1-0.3-0.1c-0.2,0-0.3,0-0.5,0.1c-0.2,0.1-0.3,0.2-0.5,0.4v1.9H51
			v1.3h-3.1v-1.3h0.7v-2.4h-0.7V20.2z"/>
	</g>
	<g>
		<g>
			<g>
				<path fill="#FFFFFF" d="M25.4,16.7c0.2-1.1,1.1-1.8,2.2-1.6c1.6,0.2,2.3,1.6,2.5,3.1c0.1,0.9,0.2,1.8,0.4,2.7
					c0,0.2,0.1,1,0.3,1.1c0.3,0.2,0.4-0.4,0.4-0.7c0.2-1.1,0.2-2.2,0.5-3.3c0.2-0.8,0.5-2.4,1.5-2.4c0.6,0,1,0.5,1.3,0.9
					c0.9,1.5,0.8,3.3,1.2,5c0,0.1,0.1,0.5,0.2,0.5c0.3,0.1,0.4-0.8,0.4-1c0.1-0.6,0.2-1.3,0.3-1.9c0.1-0.5,0.1-1,0.2-1.4
					c0.1-0.6,0-1.2,0.2-1.8c0.2-0.5,0.6-1,1.2-1c0.8,0,1.2,0.7,1.3,1.5c0.1,1.3-0.5,2.7-0.8,4c-0.4,1.5-0.8,3-1.5,4.3
					c-0.3,0.5-0.7,1.1-1.4,0.9c-1.1-0.3-1.5-2-1.7-2.9c-0.2-0.8-0.2-1.5-0.3-2.3c0-0.2-0.1-1-0.4-0.8c-0.2,0.2-0.2,1.1-0.2,1.4
					c0,0.1,0,0.2,0,0.3c-0.1,0.7-0.3,1.3-0.5,2c-0.3,0.8-0.8,2.2-1.8,2.3c-0.5,0-0.9-0.4-1.2-0.8c-1-1.5-1.3-3.7-1.5-5.4
					c-0.1-0.8-0.3-2.8-1.5-2.2C26.1,17.5,25.5,17.7,25.4,16.7z"/>
			</g>
			<g>
				<defs>
					
						<rect id="SVGID_1_" x="37.2" y="15.6" transform="matrix(0.1246 -0.9922 0.9922 0.1246 16.9341 52.5427)" width="2.1" height="2.1"/>
				</defs>
				<clipPath id="SVGID_2_">
					<use xlink:href="#SVGID_1_"  overflow="visible"/>
				</clipPath>
				<g clip-path="url(#SVGID_2_)">
					<g>
						<path d="M41.9,22.8c0.4,0,0.6-0.1,0.9-0.3c0.3-0.2,0.3-0.7,0.2-1c-0.1-0.3-0.3-0.4-0.5-0.5c-0.4-0.2-0.8-0.1-1.2,0.1
							c-0.4,0.3-0.4,0.8-0.2,1.2C41.3,22.6,41.6,22.8,41.9,22.8z M42.6,21.6C42.6,21.6,42.7,21.6,42.6,21.6
							c-0.1-0.1-0.2-0.2-0.3-0.3c-0.1,0-0.1,0-0.2-0.1c-0.2-0.1-0.3-0.1-0.5,0c-0.1,0-0.1,0-0.2,0c0.1,0,0.1,0,0.2-0.1
							c0-0.1,0-0.1,0.1-0.2c0.1-0.1,0.3-0.1,0.4,0c0.3,0.1,0.7,0.3,0.7,0.8c0,0.2,0,0.2-0.2,0.3c-0.1-0.1-0.1-0.2,0-0.2
							c0.1-0.1,0.1-0.2,0-0.2C42.7,21.7,42.7,21.7,42.6,21.6z"/>
					</g>
					<g>
						<path d="M46.1,22.4c0,0.2,0,0.4,0,0.5c0.1,0.3,0.5,0.6,0.8,0.6c0.2,0,0.4-0.1,0.6-0.3c0.3-0.4,0.4-0.8,0.2-1.3
							c-0.1-0.2-0.3-0.4-0.6-0.5c-0.3-0.1-0.5,0-0.7,0.2c-0.2,0.2-0.3,0.3-0.3,0.6C46.1,22.3,46.1,22.4,46.1,22.4z M46.7,21.9
							c0-0.1,0-0.1,0-0.1c0,0,0.1-0.1,0.1-0.1c0,0,0.1-0.1,0.1-0.1c0.1,0,0.2,0,0.4,0c0.4,0.1,0.6,0.6,0.5,1c0,0.1-0.1,0.1-0.2,0.2
							c0-0.1,0-0.2,0-0.3c0,0,0,0,0,0c0.1-0.2,0.1-0.2-0.1-0.3c0,0-0.1,0-0.1-0.1c-0.1-0.1-0.2-0.1-0.3-0.2c-0.1,0-0.1,0-0.2,0
							C46.8,21.9,46.8,21.9,46.7,21.9C46.7,21.9,46.7,21.9,46.7,21.9z"/>
					</g>
					<g>
						<path d="M47.2,21.3c0.3,0,0.6-0.1,0.8-0.4c0,0,0,0,0,0c0.3-0.3,0.2-0.9,0-1.2c-0.1-0.1-0.1-0.2-0.2-0.2c-0.3-0.2-0.7-0.2-1,0
							c-0.4,0.3-0.5,0.6-0.4,1.1c0,0.2,0.1,0.3,0.2,0.5C46.8,21.1,47,21.3,47.2,21.3z M46.9,19.7c0.1-0.1,0.1-0.2,0.2-0.3
							c0,0,0.1,0,0.1-0.1c0.2-0.1,0.4,0,0.6,0.1c0.3,0.2,0.3,0.5,0.3,0.8c0,0.1,0,0.1-0.1,0.2c-0.1,0-0.1-0.1-0.2-0.1c0,0,0,0,0,0
							c0-0.1,0-0.1,0-0.2c0-0.1-0.1-0.2-0.2-0.3c-0.1-0.1-0.3-0.2-0.4-0.2C47.2,19.6,47.1,19.7,46.9,19.7z M47.1,21
							c-0.1,0-0.1,0-0.2,0.1c-0.1-0.1-0.2-0.2-0.3-0.3c0,0,0-0.1,0-0.1c0,0,0,0.1,0,0.1c0.1,0,0.1,0.1,0.1,0.1c0,0,0.1,0.1,0.1,0.1
							C47,20.9,47,21,47.1,21z"/>
					</g>
					<g>
						<path d="M48.5,20.3c0,0.3,0,0.5,0.2,0.7c0.3,0.4,0.8,0.4,1.1,0c0.3-0.3,0.4-0.8,0.2-1.2c-0.2-0.3-0.4-0.4-0.7-0.4
							c-0.2,0-0.4,0.1-0.6,0.3C48.6,20,48.5,20.1,48.5,20.3z M49.9,20.7c0-0.1,0-0.2,0-0.2c0.1-0.1,0-0.2-0.1-0.2c0,0-0.1,0-0.2,0
							c0,0,0.1-0.1,0.1-0.1c0-0.1,0-0.1-0.1-0.2c-0.1,0-0.1-0.1-0.2-0.1c-0.1,0-0.2-0.1-0.3,0c-0.1,0-0.1,0-0.2,0
							c0,0,0.1-0.1,0.1-0.1c0.1-0.1,0.3-0.2,0.4-0.1c0.5,0.1,0.6,0.5,0.5,0.9C50,20.6,50,20.6,49.9,20.7z"/>
					</g>
					<g>
						<path d="M44.2,22.8c0.3,0,0.5,0,0.7-0.2c0.4-0.3,0.4-0.8,0.1-1.1c-0.4-0.4-1-0.4-1.4-0.1c-0.2,0.2-0.3,0.6-0.2,0.8
							C43.5,22.5,43.9,22.8,44.2,22.8z M43.8,21.5c0.1-0.1,0.1-0.1,0.2-0.2c0,0,0.1-0.1,0.1-0.1c0.4-0.1,0.7,0.1,0.9,0.3
							c0.1,0.1,0.1,0.3,0.1,0.4c0,0.1,0,0.2-0.2,0.2c0,0,0-0.1,0-0.1c0-0.2-0.1-0.4-0.2-0.5c-0.1-0.1-0.2-0.1-0.4-0.1
							C44.2,21.5,44,21.5,43.8,21.5C43.9,21.6,43.9,21.5,43.8,21.5z M44.3,22.7c-0.1,0-0.1,0-0.2,0c-0.2-0.1-0.4-0.2-0.5-0.4
							c0,0,0-0.1,0.1-0.1c0,0.1,0.1,0.2,0.2,0.3c0.1,0.1,0.2,0.1,0.3,0.2c0,0,0,0,0,0c0,0,0,0,0,0c0.1,0.1,0.3,0,0.4,0.1
							c0,0,0,0,0,0c0-0.1,0.1,0,0.1,0C44.5,22.7,44.4,22.8,44.3,22.7z"/>
					</g>
					<g>
						<path d="M48.1,22.7c0,0,0.1-0.1,0.1-0.1C48.2,22.6,48.2,22.7,48.1,22.7c0.2,0,0.2-0.1,0.2-0.2c0,0,0.1,0,0.1,0c0,0,0,0,0,0.1
							c-0.1,0.2-0.1,0.4-0.2,0.6c0,0,0,0,0,0c0-0.1-0.1-0.2-0.1-0.2c0,0,0,0.1,0,0.1c0.1,0.3,0.2,0.5,0.5,0.6c0.2,0.1,0.4,0.1,0.6,0
							c0.6-0.3,0.7-1.1,0.3-1.5c-0.4-0.4-1-0.4-1.3,0.1c-0.1,0.1-0.1,0.2-0.2,0.3C48.1,22.5,48.1,22.6,48.1,22.7z M48.7,22
							c0.1-0.1,0.1-0.2,0.2-0.2c0.1,0,0.2,0,0.3,0.1c0.3,0.2,0.5,0.5,0.4,0.9c0,0.1,0,0.1-0.1,0.2c0-0.1-0.1-0.2-0.1-0.2
							c0,0,0,0,0-0.1c0-0.1,0-0.1-0.1-0.2c0,0,0,0,0,0c0,0,0,0,0-0.1c-0.1-0.1-0.1-0.1-0.2-0.2c-0.1,0-0.2-0.1-0.2-0.1
							c0,0-0.1,0-0.1,0c-0.1,0.1-0.1,0-0.1,0C48.7,22,48.7,22,48.7,22z M49.3,22.7c0.1,0.1,0.1,0.1,0.1,0.2c0,0.1-0.1,0.1-0.1,0.2
							c0,0.1,0,0.2,0,0.3c0,0.1,0,0.1-0.1,0.1C49.2,23.2,49.2,22.9,49.3,22.7z M48.6,23.2c0.1,0,0.1,0.1,0.2,0.1c0,0,0,0,0.1,0
							c0,0,0,0.1,0.1,0.1c0.1,0,0.1,0,0.2-0.1c0,0,0,0.1,0,0.1c0,0,0,0,0,0c0,0,0-0.1,0-0.1c0,0,0,0.1,0,0.1c-0.1,0-0.2,0-0.2,0
							c0,0,0,0,0,0C48.6,23.5,48.6,23.4,48.6,23.2C48.5,23.3,48.6,23.3,48.6,23.2z"/>
					</g>
					<g>
						<path d="M42.4,18.8c-0.3,0-0.5,0-0.7,0.2c-0.4,0.3-0.5,0.8-0.3,1.3c0.3,0.5,1,0.6,1.5,0.3c0.5-0.4,0.6-1,0.1-1.4
							C42.9,18.9,42.7,18.8,42.4,18.8z M41.5,20.1c0.1,0,0.2,0.1,0.2,0c0,0,0.1,0,0.1-0.1c0,0,0.1,0.1,0.1,0.1c0.2,0,0.4,0.1,0.6,0
							c-0.2-0.2-0.3-0.3-0.5-0.4c0-0.1-0.1-0.1-0.1-0.2c0.1,0,0.1-0.1,0.1-0.2c0,0-0.1-0.1-0.1-0.1c0-0.1,0.1-0.2,0.1-0.3
							c0-0.1,0.1-0.1,0.1-0.1c0.1,0,0.2,0,0.3,0c0.3,0,0.5,0.2,0.7,0.4c0.1,0.2,0.2,0.4,0,0.6c0,0-0.1,0.1-0.1,0.2
							c0,0.1,0,0.1-0.1,0.2c0,0,0-0.1,0-0.1c-0.1,0-0.2,0-0.3,0.1c0.1,0.1,0.1,0.1,0.2,0.2c-0.1,0-0.2,0-0.3,0.1c0,0-0.1,0-0.1,0
							c0,0-0.1,0-0.2,0c-0.1,0-0.2,0-0.2-0.1C41.8,20.5,41.7,20.3,41.5,20.1C41.5,20.1,41.5,20.1,41.5,20.1
							c-0.1-0.2-0.2-0.4-0.1-0.6c0,0,0-0.1,0.1-0.1c0.1,0,0.1-0.1,0.2-0.2c0,0,0,0,0.1,0.1c0,0-0.1,0.1-0.1,0.1c0,0,0.1,0.1,0.1,0.1
							c0,0-0.1,0.1,0,0.2c0,0,0,0.1,0.1,0.1c-0.1,0.1-0.1,0.1-0.2,0.2C41.5,20,41.5,20.1,41.5,20.1z"/>
					</g>
					<g>
						<path d="M44,17.8c0,0-0.1,0-0.1,0c0-0.3,0-0.5,0.1-0.8c-0.1,0-0.2,0-0.2,0.1c-0.2,0.2-0.4,0.3-0.6,0.5
							c-0.2-0.2-0.3-0.5-0.5-0.7c-0.1,0-0.1,0.1-0.1,0.2c0,0.1,0,0.3-0.1,0.4c0,0.1,0,0.1-0.1,0.2c-0.1,0-0.2,0-0.2,0.1
							c0,0,0,0,0.1,0C42.9,17.7,43.4,17.9,44,17.8C44,17.8,44,17.8,44,17.8z M43.8,17.7c-0.1,0-0.1,0-0.1-0.1c0-0.1,0-0.3,0.1-0.4
							c0-0.1,0.1-0.1,0.1-0.1C43.8,17.3,43.8,17.5,43.8,17.7z M42.6,17.6c0-0.2,0.1-0.4,0.1-0.6c0,0.1,0.1,0.1,0.1,0.2
							c0,0.2,0,0.3,0,0.5C42.7,17.6,42.6,17.6,42.6,17.6z"/>
					</g>
					<g>
						<path d="M43.6,19.8c0,0.3,0.1,0.7,0.4,0.9c0.4,0.2,0.7,0.2,1.1,0c0.1-0.1,0.2-0.2,0.3-0.4c0,0,0-0.1,0-0.1
							c0.2-0.3,0.1-0.6-0.2-0.8c-0.3-0.4-0.9-0.4-1.3-0.1C43.8,19.3,43.6,19.6,43.6,19.8z M45.2,20.4c0,0-0.1,0-0.1,0.1
							c-0.1,0.1-0.1,0.1-0.2,0.1c-0.1,0-0.1,0.1-0.2,0.1c-0.1,0-0.4-0.1-0.5-0.1c-0.1-0.1-0.2-0.2-0.3-0.3c0-0.1-0.1-0.2-0.1-0.2
							c0-0.1,0-0.2,0-0.3c0-0.1,0.2-0.1,0.2-0.3c0,0,0,0,0,0c0.1,0,0.1,0,0.2-0.1c0-0.1,0.1-0.2,0.3-0.3c0.3-0.1,0.7,0.1,0.9,0.4
							c0.1,0.2,0.1,0.4-0.1,0.6C45.2,20.1,45.1,20,45,20c0,0-0.1,0-0.1,0c0,0,0,0.1-0.1,0.1c0.1,0.1,0.3,0.2,0.4,0.3
							C45.2,20.3,45.2,20.4,45.2,20.4C45.1,20.4,45.2,20.4,45.2,20.4z"/>
					</g>
					<g>
						<path d="M48.4,11.1c0.1,0.2,0.3,0.2,0.5,0.2c0.2,0,0.4-0.3,0.2-0.5c-0.1-0.2-0.3-0.2-0.4-0.2c-0.1,0-0.1,0-0.2,0.1
							c0,0,0,0,0,0c0-0.2-0.1-0.3-0.3-0.4c-0.2-0.1-0.4-0.1-0.6,0c-0.1,0.1-0.2,0.2-0.2,0.3c0,0.1,0,0.2,0,0.3
							c0.1,0.2,0.2,0.3,0.4,0.3C47.9,11.2,48.1,11.2,48.4,11.1z M48.2,11.1c-0.1,0.1-0.3,0.1-0.4,0.1c-0.2,0-0.3-0.2-0.3-0.4
							c0-0.1,0-0.2,0-0.3c0-0.1,0.1-0.2,0.2-0.2c0.1,0,0.2,0,0.3,0c0.3,0.1,0.4,0.3,0.4,0.6c-0.2-0.1-0.2-0.1-0.3,0
							C48,11,48,11,48.2,11.1z M48.5,10.9c0-0.2,0.1-0.2,0.2-0.2c0.1,0,0.2,0.1,0.2,0.1c0.1,0.1,0.1,0.1,0.1,0.2
							c0,0.1-0.1,0.1-0.2,0.1c-0.1,0-0.1,0-0.2,0c0,0,0,0,0,0c0,0,0-0.1,0.1-0.1C48.6,11,48.6,10.9,48.5,10.9z"/>
					</g>
					<g>
						<path d="M51.4,6.9C51.2,7,51,7,50.9,7c-0.2,0-0.3,0-0.4-0.2c0,0-0.1,0-0.1,0.1c0,0.1,0,0.2,0,0.3c0,0.3,0.2,0.4,0.4,0.4
							c0.3,0,0.5-0.1,0.5-0.4c0-0.1,0-0.1,0-0.2C51.4,6.9,51.4,6.9,51.4,6.9z M51.3,7.1C51.3,7.1,51.3,7.2,51.3,7.1
							c-0.1,0.4-0.4,0.4-0.6,0.3c0,0-0.1-0.1-0.1-0.1c0-0.1,0-0.1,0-0.2c0,0,0,0,0,0c0,0,0.1,0.1,0.1,0.1c0,0,0.1-0.1,0.1-0.1
							c0.1,0,0.1,0,0.2,0c0.2,0,0.2,0,0.2,0.1C51.2,7.2,51.2,7.1,51.3,7.1z"/>
					</g>
					<g>
						<path d="M36.1,32.7c-0.1,0-0.1,0.1-0.2,0.1c-0.1,0-0.1,0.1-0.2,0.1c0,0-0.1,0.1,0,0.1c0,0,0.1,0.1,0.1,0.1c0,0,0,0,0,0
							c0.2,0,0.3-0.1,0.5-0.2c0,0,0-0.1,0-0.1c-0.1-0.2-0.2-0.4-0.4-0.5c-0.1,0-0.1-0.1-0.2,0c-0.1,0-0.1,0.1,0,0.1
							c0,0,0.1,0.1,0.1,0.1C35.9,32.5,36,32.6,36.1,32.7z"/>
					</g>
					<g>
						<path d="M37.6,32.9C37.7,32.8,37.7,32.8,37.6,32.9c0.1-0.1,0.2-0.2,0.3-0.2c0.1,0,0.1-0.1,0.1-0.1c0-0.1-0.1-0.1-0.1-0.1
							c-0.1,0-0.2,0-0.2,0.1c-0.1,0.1-0.1,0.2-0.2,0.3c0,0.1,0,0.1,0,0.2c0.1,0.2,0.3,0.3,0.4,0.3c0,0,0.1,0,0.1,0
							c0.1,0,0.1-0.1,0.1-0.1c0-0.1-0.1-0.1-0.1-0.2C37.8,33,37.7,32.9,37.6,32.9z"/>
					</g>
					<g>
						<path d="M39.5,16.9C39.5,16.9,39.5,16.9,39.5,16.9c-0.2,0.1-0.2,0.2-0.1,0.3c0,0,0.1,0,0.2,0.1c0,0.1-0.1,0.2,0,0.2
							c0.1,0.1,0.2,0,0.3-0.1c0.1,0,0.1,0.1,0.2,0c0.1-0.1,0-0.2,0-0.3c0,0,0,0,0.1-0.1c0.1-0.1,0.1-0.2,0-0.2
							c-0.1,0-0.1-0.1-0.1-0.1c0,0-0.1-0.1-0.1-0.1c-0.1,0-0.1,0.1-0.2,0.1c0,0-0.1,0-0.1-0.1c-0.1,0-0.1,0-0.1,0.1
							C39.5,16.7,39.5,16.8,39.5,16.9C39.5,16.8,39.5,16.8,39.5,16.9z M40.1,17C40,17.1,40,17.2,40,17.3c-0.1-0.1-0.1-0.1-0.3,0
							c0,0,0,0-0.1,0c0-0.1,0-0.2-0.1-0.3c0.1-0.1,0.1-0.2,0.2-0.3c0.1,0.1,0.1,0,0.2,0C40,16.9,40,16.9,40.1,17z"/>
					</g>
					<g>
						<path d="M51,2.4c0.1,0,0.1,0.1,0.2,0.1c0.1-0.1,0.1-0.1,0-0.3c0,0,0,0,0.1-0.1c0.1-0.1,0.1-0.2,0-0.2c-0.1,0-0.1-0.1-0.1-0.1
							c0-0.1-0.1-0.1-0.2-0.1c-0.1,0-0.1,0-0.1,0c-0.1-0.1-0.2,0-0.2,0.1c0,0,0,0,0,0.1c0,0,0,0,0,0c0,0-0.1,0-0.1,0
							c-0.1,0-0.1,0.1,0,0.2c0,0,0.1,0,0.1,0.1c0,0,0.1,0,0.1,0c0,0,0,0,0,0c0,0.1,0,0.1,0,0.2c0.1,0,0.1,0,0.2,0
							C51,2.4,51,2.4,51,2.4z M51.2,2.3c-0.1-0.1-0.2,0-0.3,0c0-0.1-0.1-0.2-0.2-0.3c0,0,0.1-0.1,0.1-0.1c0,0,0-0.1,0.1-0.1
							c0.1,0.1,0.2,0,0.3,0C51.2,2,51.2,2,51.2,2C51.2,2.1,51.2,2.1,51.2,2.3z"/>
					</g>
					<g>
						<path d="M44.2,17.8c0.2,0,0.4,0,0.5,0.1c0,0,0.1,0,0.1-0.1c0-0.3,0.1-0.6,0-0.9c0-0.1,0-0.1-0.1-0.2c-0.1,0-0.1,0.1-0.2,0.1
							c-0.1,0.2-0.2,0.4-0.2,0.6C44.3,17.7,44.3,17.7,44.2,17.8z M44.7,16.9c0.1,0.1,0.1,0.3,0.1,0.4c-0.1,0-0.1,0.1-0.2,0.2
							c0,0.1,0,0.2,0,0.3c-0.1,0-0.1,0-0.1,0c0,0,0,0,0,0C44.4,17.5,44.5,17,44.7,16.9z"/>
					</g>
					<g>
						<path d="M36,26.8c0.1,0,0-0.1,0.1-0.1c0-0.1,0.1-0.3,0.1-0.4c0-0.1,0-0.1,0.2-0.1c0,0.1-0.1,0.2-0.1,0.3c0,0.1-0.1,0.2,0,0.4
							c0-0.1,0-0.1,0-0.1c0-0.1,0.1-0.2,0.1-0.4c0-0.1,0-0.1,0.1-0.2c0.1,0,0.1,0,0.2,0c0,0-0.1-0.1-0.1-0.1c0,0,0.1,0,0.1,0
							c-0.1-0.3-0.2-0.3-0.5-0.2c0,0,0,0-0.1,0c0,0,0,0.1,0,0.1C36,26,36,26,35.9,26c0,0.1,0.1,0.1,0.2,0.1c0,0,0.1,0,0.1-0.1
							C36.1,26.3,36,26.5,36,26.8z"/>
					</g>
					<g>
						<path d="M45.1,17.9c0.2,0,0.4,0,0.6,0c0,0-0.1-0.1-0.1-0.1c0-0.2,0-0.4,0-0.7c0-0.1,0-0.2,0-0.3c0-0.1-0.1-0.1-0.1-0.1
							c0,0-0.1,0.1-0.1,0.1c0,0.1-0.1,0.2-0.1,0.2C45.2,17.4,45.2,17.6,45.1,17.9C45.1,17.9,45.1,17.9,45.1,17.9z M45.5,16.9
							c0.1,0.1,0.1,0.3,0.1,0.5c0,0.1,0,0.3-0.1,0.4c-0.1,0-0.1,0-0.2,0c0-0.1,0-0.1,0-0.2c0-0.1,0-0.1,0-0.2c0-0.1,0-0.1,0-0.2
							C45.3,17.2,45.4,17,45.5,16.9z"/>
					</g>
					<g>
						<path d="M46.8,16.3c0.1,0,0.1-0.1,0.1-0.2c0-0.1,0.1-0.3,0.1-0.4c0-0.1,0.1-0.1,0.2-0.1c0,0.1,0,0.2-0.1,0.4
							c0,0.1,0,0.2,0,0.4c0.1-0.1,0.1-0.2,0.1-0.3c0-0.1,0-0.2,0.1-0.3c0,0,0.1,0,0.2,0c0,0,0-0.1-0.1-0.1c0,0,0.1,0,0.1,0
							c0,0,0,0,0,0c0,0,0-0.1-0.1-0.1c-0.1-0.1-0.2-0.1-0.3-0.1c-0.1,0-0.1,0.1-0.2,0c0,0.1,0,0.1,0,0.2c0,0.1-0.1,0-0.2,0
							c0.1,0,0.1,0.1,0.2,0.1c0,0,0.1-0.1,0.1-0.1C47,15.8,46.8,16,46.8,16.3z"/>
					</g>
					<g>
						<path d="M40.9,17.3C40.9,17.3,40.9,17.3,40.9,17.3c0.1,0,0.1,0.1,0.2,0c0.1,0,0.1-0.1,0.1-0.2c0,0,0-0.1,0-0.1
							c0-0.1,0.1-0.1,0.1-0.2c0-0.1,0-0.2-0.2-0.2c-0.1,0-0.1,0-0.2-0.1c-0.1-0.1-0.2,0-0.2,0.1c0,0,0,0.1-0.1,0.1
							c-0.1,0.1-0.1,0.2,0,0.3c0,0,0.1,0.1,0.1,0.2c0,0,0,0.1,0.1,0.1C40.7,17.5,40.8,17.4,40.9,17.3C40.8,17.4,40.9,17.4,40.9,17.3
							z M40.7,16.7c0,0.1,0.1,0.1,0.1,0.1c0.1,0,0.1,0,0.2,0c0,0.1,0,0.1,0,0.1c-0.1,0.1-0.1,0.2,0,0.2c0,0,0,0,0,0.1
							c-0.1,0.1-0.1-0.1-0.2,0c0,0-0.1,0.1-0.1,0.1c-0.1-0.1,0-0.1,0-0.2c-0.1-0.1-0.1-0.1-0.1-0.1C40.7,16.9,40.7,16.9,40.7,16.7z"
							/>
					</g>
					<g>
						<path d="M48.6,6.8c-0.3,0.1-0.5,0-0.7-0.2c0,0.1,0,0.1,0,0.1C48,7,48.2,7.1,48.4,7.2c0.1,0,0.2,0,0.3,0c0.2,0,0.4-0.1,0.4-0.4
							c0,0-0.1,0-0.1,0c0-0.1-0.1-0.2-0.2-0.2C48.7,6.6,48.7,6.7,48.6,6.8z M49.1,6.9c-0.1,0.2-0.2,0.2-0.3,0.2
							c-0.2,0-0.4,0-0.5-0.1C48.1,7,48.1,6.9,48,6.8c0.1,0,0.1,0.1,0.2,0.1c0.1,0,0.2,0,0.2,0.1c0.1,0,0.1,0,0.2,0
							c0,0,0.1-0.1,0.1-0.2c0-0.1,0-0.1,0.2-0.1c0,0.1,0,0.2-0.1,0.3c0.1,0,0.1-0.1,0.1-0.2C49,6.8,49,6.9,49.1,6.9z"/>
					</g>
					<g>
						<path d="M37.9,18.9c0.1,0,0.2,0,0.3-0.1c0.1-0.1,0.1-0.2,0-0.2c-0.1-0.1-0.4-0.2-0.6-0.1c-0.1,0.1-0.1,0.1,0,0.2
							C37.7,18.9,37.8,18.9,37.9,18.9z"/>
					</g>
					<g>
						<path d="M52.1,1.8C52.1,1.8,52.1,1.8,52.1,1.8c-0.2-0.1-0.3-0.1-0.3,0c0,0.1,0,0.1-0.1,0.1c-0.1,0.1-0.1,0.2,0,0.2
							c0,0,0.1,0.1,0.1,0.1c0,0.2,0.1,0.2,0.2,0.1c0,0,0,0,0,0c0,0,0,0,0.1,0c0.1,0,0.1,0,0.2,0c0,0,0-0.1,0-0.1c0,0,0-0.1-0.1-0.1
							c0,0,0,0,0.1-0.1c0,0,0.1-0.1,0-0.2c0-0.1-0.1-0.1-0.2-0.1C52.2,1.8,52.2,1.8,52.1,1.8z M52.3,2C52.3,2,52.3,2,52.3,2
							c-0.1,0.1-0.1,0.2-0.1,0.3c0,0,0,0,0,0.1c-0.1,0-0.1,0-0.1,0c0,0-0.1,0-0.1,0c-0.1,0-0.1,0.1-0.2,0.1c0-0.1,0-0.1,0-0.2
							c-0.1,0-0.1,0-0.1-0.1C51.9,2,52,2,52,1.8C52,1.9,52,1.9,52.1,2C52.2,2,52.2,1.9,52.3,2z"/>
					</g>
					<g>
						<path d="M48.9,6.2c0,0.2,0.1,0.3,0.3,0.3c0.2,0,0.4-0.1,0.4-0.3c0-0.1-0.1-0.4-0.3-0.4C49.1,5.8,48.9,6,48.9,6.2z M49,6.2
							c0-0.1,0-0.1,0.1-0.2c0.1-0.1,0.2-0.1,0.3,0c0,0,0,0.1,0.1,0.1c0,0.1,0.1,0.1,0,0.2c-0.1,0.1-0.1,0.1-0.2,0.1
							c0-0.2,0-0.2-0.1-0.3C49.1,6.2,49.1,6.2,49,6.2z"/>
					</g>
					<g>
						<path d="M49.1,0.2c0.2,0.1,0.5,0.1,0.6,0.1c0-0.2,0-0.4,0.1-0.6c0-0.1,0-0.1-0.1-0.1c-0.1,0-0.3,0-0.4,0c-0.1,0-0.1,0-0.1,0.1
							C49.1-0.3,49.1-0.1,49.1,0.2C49.1,0.1,49.1,0.1,49.1,0.2z M49.2-0.5c0.2,0,0.3,0,0.5,0.1c0,0.2,0,0.4-0.1,0.6
							c-0.1,0-0.3,0-0.4-0.1C49.2-0.1,49.2-0.3,49.2-0.5z"/>
					</g>
					<g>
						<path d="M48.3,15.7c0.1,0,0.1,0,0.3,0C48.5,15.7,48.4,15.7,48.3,15.7c0.1-0.1,0.2-0.2,0.2-0.2c-0.1,0-0.1,0-0.3-0.1
							c-0.1,0-0.2,0.1-0.2,0.2c0,0,0,0.1,0,0.1c0,0,0.1,0,0.1,0.1c0,0.1,0,0.2,0,0.3c0,0.1,0,0.2,0,0.3c0,0,0,0,0-0.1
							c0-0.1,0-0.3,0.1-0.4C48.2,15.9,48.2,15.9,48.3,15.7c-0.1,0.1,0,0.1,0,0.1c0,0.1,0,0.2,0,0.3c0,0.1,0,0.2,0,0.3c0,0,0,0,0-0.1
							C48.4,16.2,48.4,16,48.3,15.7z"/>
					</g>
					<g>
						<path d="M40.1,18.8c0.1,0,0.1,0,0.2-0.1c-0.1,0-0.2-0.1-0.4,0c-0.1,0-0.1,0.1-0.2,0.1c0,0.1,0,0.1,0.1,0.2
							c0.2,0.2,0.5,0.1,0.6-0.1c0,0,0-0.1-0.1-0.1C40.3,19,40.2,19,40.1,18.8z"/>
					</g>
					<g>
						<path d="M48,5.7c-0.2,0-0.4,0.2-0.4,0.3c0,0.2,0.1,0.4,0.3,0.4c0.2,0,0.3-0.1,0.4-0.3C48.3,5.9,48.2,5.7,48,5.7z M48,6.3
							c-0.2,0-0.2,0-0.3-0.1c-0.1-0.1,0-0.3,0.2-0.4C48,5.8,48.2,5.8,48.2,6C48.1,6,48,6,48,6.1C47.9,6.1,47.9,6.2,48,6.3z"/>
					</g>
					<g>
						<path d="M36.3,28.5C36.3,28.5,36.2,28.5,36.3,28.5c0-0.1,0-0.1,0-0.1c0-0.1-0.1-0.2-0.2-0.2c-0.1,0-0.1,0-0.2,0
							c0,0-0.1,0-0.1,0c0,0-0.1,0-0.1-0.1c0,0.1,0,0.1,0,0.1c-0.1,0.1-0.1,0.1-0.2,0.1c0,0.1,0.1,0.1,0.2,0.2c0,0,0,0,0,0.1
							C35.9,28.5,36.1,28.5,36.3,28.5C36.3,28.6,36.3,28.5,36.3,28.5z"/>
					</g>
					<g>
						<path d="M46.6,17.7C46.6,17.7,46.6,17.8,46.6,17.7c0,0.2-0.1,0.2-0.2,0.2c0,0.1,0.1,0.1,0.2,0.1c0,0,0,0.1,0,0.1c0,0,0,0,0,0
							c0.1,0,0.3,0,0.4,0.1c0,0,0,0,0.1,0c0,0-0.1,0-0.1-0.1c0,0,0,0,0,0c0.1,0,0.1-0.1,0.1-0.1c-0.1-0.1-0.2-0.2-0.3-0.2
							C46.7,17.8,46.6,17.8,46.6,17.7C46.6,17.7,46.6,17.7,46.6,17.7z"/>
					</g>
					<g>
						<path d="M44.5,6.3c0-0.1,0-0.2,0-0.3c0-0.1,0-0.1,0-0.2c0-0.1-0.3-0.1-0.3,0c0,0,0,0.1,0,0.1c0,0.1,0,0.2,0,0.3
							c0,0.1,0,0.2-0.1,0.3c0,0-0.1,0.1-0.1,0.1c0,0.1,0,0.1,0.1,0.1c0.1,0,0.1,0,0.2,0c0.2,0,0.2,0,0.3-0.2c0-0.1,0-0.1,0-0.2
							C44.5,6.4,44.5,6.3,44.5,6.3C44.5,6.3,44.5,6.3,44.5,6.3z M44.2,5.8c0.1,0,0.2-0.1,0.3,0c0,0,0,0.1,0,0.1
							c0,0.2-0.1,0.5-0.1,0.7c0,0,0,0.1,0,0.1c-0.1,0-0.1,0-0.2,0c-0.1,0-0.1,0-0.1-0.1C44.2,6.4,44.2,6.1,44.2,5.8z"/>
					</g>
					<g>
						<path d="M38.1,14.2c0,0.2-0.1,0.4-0.1,0.7c0,0.1,0,0.1,0.1,0.1c0.2,0,0.3,0,0.5,0.1c0-0.1,0-0.1,0-0.1c0-0.2,0-0.4,0.1-0.5
							c0-0.1,0-0.1-0.1-0.1C38.5,14.2,38.4,14.2,38.1,14.2C38.2,14.2,38.2,14.2,38.1,14.2z M38.7,14.3c0,0.2-0.1,0.4-0.1,0.6
							c-0.1,0-0.3,0-0.4,0c0-0.2,0-0.4,0-0.6C38.4,14.3,38.5,14.3,38.7,14.3z"/>
					</g>
					<g>
						<path d="M46.5,2.1c0,0,0.1,0,0.1,0C46.8,2,46.9,2,47,2.1c0.1,0.1,0.1,0.1,0.2,0c0.1,0,0.1-0.1,0.1-0.2
							c-0.1-0.2-0.2-0.3-0.4-0.3c0,0-0.1,0-0.1,0c-0.2,0-0.4,0.1-0.5,0.3C46.2,2,46.3,2.1,46.5,2.1z M46.4,2c0-0.1,0-0.1,0-0.1
							c0.1-0.2,0.3-0.2,0.5-0.2c0.2,0,0.2,0.1,0.3,0.3c0,0,0,0.1,0,0.1c0,0-0.1,0-0.1,0c0,0,0,0-0.1,0c-0.1-0.1-0.2-0.1-0.4-0.1
							C46.6,2,46.5,2,46.4,2z"/>
					</g>
					<g>
						<path d="M42.8,14.6c0.2-0.1,0.2-0.2,0.1-0.3c0,0,0,0,0-0.1c0-0.1-0.1-0.1-0.2-0.1c0,0,0,0,0,0c0,0-0.1,0-0.1,0
							c-0.1,0.1-0.2,0-0.3,0c-0.1,0.1-0.1,0.3,0,0.3c0,0,0.1,0,0.1,0c0,0,0,0.1,0,0.1c0,0.1,0,0.1,0.1,0.1c0.1,0,0.1,0,0.2,0
							C42.7,14.6,42.7,14.6,42.8,14.6C42.7,14.6,42.8,14.6,42.8,14.6z M42.5,14.6C42.5,14.5,42.5,14.5,42.5,14.6
							c0-0.2,0-0.2-0.1-0.2c0,0-0.1,0-0.1,0c0,0,0-0.1,0-0.1c0,0,0,0,0.1,0.1c0,0,0.1-0.1,0.1-0.1c0.1,0,0.1,0.1,0.2,0.1
							c0,0.1,0,0.1,0.1,0.2c0,0,0,0,0,0.1c0,0,0,0-0.1,0.1c-0.1-0.1-0.1-0.1-0.2,0C42.6,14.5,42.6,14.5,42.5,14.6z"/>
					</g>
					<g>
						<path d="M43.8,30.1c0-0.2,0-0.4,0.1-0.5c0-0.1,0-0.1-0.1-0.1c-0.1,0-0.3,0-0.4-0.1c-0.1,0-0.1,0-0.1,0.1c0,0.1,0,0.3,0,0.4
							c0,0.1,0,0.1,0.1,0.2C43.5,30.1,43.6,30.2,43.8,30.1z M43.3,30c0-0.2,0-0.3,0-0.5c0.1,0,0.2,0,0.3,0.1c0.1,0.2,0,0.3,0,0.5
							C43.6,30.1,43.5,30,43.3,30z"/>
					</g>
					<g>
						<path d="M51.9,0.3C51.9,0.3,51.9,0.3,51.9,0.3c0,0.1-0.1,0.2-0.1,0.2c-0.1,0-0.2,0-0.2-0.1c0,0,0-0.1,0-0.2c0,0,0-0.1,0.1-0.1
							c0,0-0.1,0-0.1,0c-0.1,0.1-0.1,0.2-0.1,0.3c0,0.1,0.1,0.1,0.2,0.2c0.1,0,0.2,0,0.3,0c0.2,0.1,0.3,0.1,0.4,0
							c0.1-0.1,0.1-0.2,0-0.4c0,0-0.1,0.1-0.1,0.1c0,0,0,0.1,0,0.1c0,0.1-0.1,0.1-0.1,0.1c-0.1,0-0.1,0-0.2-0.1
							C52,0.4,52,0.4,51.9,0.3C52,0.3,52,0.3,51.9,0.3C51.9,0.3,51.9,0.3,51.9,0.3z"/>
					</g>
					<g>
						<path d="M41.8,31.1c0,0.1,0,0.1,0,0.2c0,0.1,0,0.1,0.1,0.1c0.1,0,0.1-0.1,0.1-0.1c0-0.1,0-0.2,0.1-0.2c0,0,0,0,0-0.1
							c0-0.1-0.1-0.2-0.2-0.2c-0.1,0-0.2,0-0.3,0.1C41.7,31,41.7,31,41.8,31.1C41.8,31.1,41.8,31.1,41.8,31.1z"/>
					</g>
					<g>
						<path d="M40.4,14.9c-0.1,0-0.1,0.1-0.1,0.2c0,0.1,0,0.2,0,0.2c0.1,0.1,0.1,0.1,0.2,0.1c0,0,0.1,0,0.1,0c0,0,0.1,0,0.1,0
							c0.2,0.1,0.4,0,0.4-0.3c0,0,0-0.1,0-0.1c0,0,0,0,0,0.1c0,0,0,0.1,0,0.1c0,0.1-0.1,0.1-0.1,0.1c-0.1,0-0.1-0.1-0.1-0.1
							c0,0,0-0.1,0-0.1c0,0,0,0-0.1-0.1c0,0.1-0.1,0.1-0.1,0.2c0,0.1-0.1,0.1-0.1,0.1C40.3,15.3,40.3,15.2,40.4,14.9
							C40.4,15,40.4,15,40.4,14.9C40.4,14.9,40.4,14.9,40.4,14.9z"/>
					</g>
					<g>
						<path d="M49,3.6c0-0.1-0.1-0.1-0.1-0.1c-0.1,0-0.2,0-0.3,0c0,0,0,0-0.1,0.1c0,0,0,0,0.1,0.1c-0.1,0.1,0,0.2,0.1,0.3
							c-0.1,0.1-0.1,0.1-0.2,0.2c-0.1,0.1-0.1,0.2,0,0.3c0.1,0.1,0.1,0.1,0,0.2c0,0,0,0,0,0c0,0,0,0,0,0c0.2-0.1,0.2-0.2,0.1-0.3
							c0,0-0.1-0.1-0.1-0.1c0-0.2,0.2-0.2,0.3-0.3c0-0.1,0-0.1-0.1-0.2c-0.1,0-0.1-0.1,0-0.1c0-0.1,0.1-0.1,0.1-0.1c0,0,0.1,0,0.1,0
							c-0.1,0.1-0.1,0.1,0,0.3c0,0,0,0.1,0.1,0.1c-0.1,0-0.1,0.1-0.2,0.1c-0.1,0.1-0.1,0.2-0.1,0.3c0.1,0.1,0.1,0.1,0.1,0.3
							c0.1-0.1,0.1-0.1,0.1-0.2c0-0.1-0.1-0.1-0.1-0.2c0-0.1,0.1-0.1,0.2-0.2C49,4.1,49,4,48.9,4c0,0,0-0.1-0.1-0.1
							C48.8,3.8,48.8,3.7,49,3.6C48.9,3.6,49,3.6,49,3.6z"/>
					</g>
					<g>
						<path d="M41.3,12.6c-0.2-0.1-0.4-0.1-0.6-0.1c0,0.1,0,0.2,0,0.3c0,0.1,0,0.2,0,0.2c0,0.1,0,0.1,0.1,0.1c0.1,0,0.2,0,0.4,0
							c0,0,0.1,0,0.1-0.1C41.3,12.9,41.3,12.7,41.3,12.6z M40.8,13c0-0.1,0-0.3,0-0.4c0.1,0,0.2,0,0.4,0c0,0.1,0,0.3,0,0.4
							C41,13,40.9,13,40.8,13z"/>
					</g>
					<g>
						<path d="M48.1,25c0,0,0.1,0,0.1,0c0-0.1,0.1-0.1,0.1-0.3c0.1,0,0.2,0,0.3,0c-0.1,0-0.1-0.1-0.2-0.1c0,0,0.1-0.1,0.1-0.1
							c0,0,0,0,0,0c-0.1,0-0.1,0-0.2,0c0,0,0,0-0.1,0c-0.1,0-0.1,0-0.2,0c0,0,0,0,0,0c0,0,0,0,0,0.1C48.1,24.7,48.1,24.9,48.1,25z"
							/>
					</g>
					<g>
						<path d="M42.6,12.2c0,0.2,0.1,0.2,0.3,0.2c0.1,0,0.3,0.1,0.4-0.1c0-0.1-0.1-0.2-0.2-0.3C42.9,12.1,42.7,12.1,42.6,12.2z"/>
					</g>
					<g>
						<path d="M46.7,29c-0.3-0.2-0.5-0.2-0.6,0.1c0.1,0.1,0.2,0.2,0.3,0.2C46.6,29.3,46.7,29.2,46.7,29z"/>
					</g>
					<g>
						<path d="M46.1,27.2c-0.1,0-0.1,0-0.2,0c-0.1,0-0.2,0.1-0.2,0.2c0,0.1,0,0.2,0.1,0.3c0.1,0,0.2,0.1,0.3,0.1c0.1,0,0.2,0,0.3,0
							c0.1,0,0.2-0.1,0.2-0.2c0-0.1,0-0.2-0.1-0.2c0,0,0,0-0.1,0C46.3,27.2,46.2,27.2,46.1,27.2z M46.1,27.7c-0.1,0-0.3-0.1-0.3-0.2
							c-0.1-0.1,0-0.2,0.1-0.2c0.2,0,0.4,0,0.6,0.1c0.1,0,0.1,0.2,0,0.2C46.3,27.6,46.2,27.7,46.1,27.7z"/>
					</g>
					<g>
						<path d="M41.5,14.8c0-0.1,0-0.1,0-0.2c-0.1-0.1-0.2-0.2-0.2-0.3c0,0-0.1-0.1-0.1-0.1c0.2-0.1,0.4-0.2,0.5-0.3
							c0,0-0.1-0.1-0.1-0.1c0,0,0,0,0,0C41.4,14,41.2,14,41,14.1c-0.1,0.1-0.1,0.1,0,0.2C41.2,14.5,41.3,14.7,41.5,14.8z"/>
					</g>
					<g>
						<path d="M41.8,5.5c0,0-0.1-0.1-0.1-0.1c0,0-0.1,0.1-0.2,0.1c0,0-0.1-0.1-0.1-0.1c0,0,0,0,0,0c0,0.1,0,0.3,0,0.4
							c0,0.1,0,0.1,0,0.2c0.1,0,0.1,0,0.2,0c0.1,0,0.2,0,0.2,0c0.1,0,0.1,0,0.1-0.1c0-0.1,0-0.2,0-0.3c0-0.1,0-0.2,0.1-0.3
							c0,0,0,0,0-0.1C41.9,5.4,41.8,5.5,41.8,5.5z M41.8,5.6c0,0.1,0,0.3,0,0.4c-0.1,0-0.3,0-0.4,0c0-0.1,0-0.3,0.1-0.4
							c0.1,0,0.1,0,0.2-0.1C41.7,5.6,41.8,5.6,41.8,5.6z"/>
					</g>
					<g>
						<path d="M52.1-0.5c0.2,0.2,0.4,0.4,0.6,0.6c0.1-0.1,0-0.1,0-0.2c-0.1-0.1-0.2-0.2-0.3-0.3c0,0,0,0-0.1-0.1
							c0.1-0.1,0.3-0.1,0.4-0.2c0,0,0.1,0,0.1,0c0,0,0-0.1,0-0.1c0,0,0,0-0.1,0c0,0-0.1,0-0.1,0c-0.2,0.1-0.3,0.1-0.5,0.2
							C52.2-0.6,52.2-0.5,52.1-0.5z"/>
					</g>
					<g>
						<path d="M47.5,4.6C47.5,4.6,47.5,4.6,47.5,4.6c0-0.2,0-0.2,0.1-0.3c0,0,0,0,0-0.1c0-0.1,0.1-0.1,0-0.2c0,0,0-0.1-0.1-0.1
							c0.1-0.1,0.1-0.1,0.2-0.2c0-0.1,0-0.2,0-0.2c0,0,0,0,0,0c0,0,0.1,0,0.1-0.1c0-0.1,0-0.1-0.1-0.1c-0.1,0-0.2,0-0.3,0
							c0,0,0,0-0.1,0.1c0.1,0,0.2,0.1,0.2,0.2c0,0-0.1,0.1-0.1,0.1c0,0-0.1,0.1-0.1,0.1c-0.1,0.1-0.1,0.1,0,0.2c0,0,0.1,0.1,0.1,0.1
							c0,0-0.1,0-0.1,0.1c0,0-0.1,0.1-0.1,0.1c0,0.1-0.1,0.1,0,0.2c0-0.1,0-0.2,0.1-0.3c0,0,0.1,0,0.1-0.1c0.1-0.1,0.1-0.1,0-0.2
							c0,0,0,0,0,0c-0.1-0.1-0.1-0.1,0-0.2c0,0,0,0,0,0c0.1-0.1,0.1-0.1,0.1-0.2c0,0,0,0,0,0c0,0,0,0,0,0c0.1,0.1,0.1,0.2,0.1,0.3
							c0,0,0,0.1-0.1,0.1c0,0,0,0-0.1,0.1c0,0,0,0.1,0,0.1c0,0,0,0,0,0c0.1,0.1,0.1,0.2,0,0.3C47.5,4.4,47.5,4.5,47.5,4.6z"/>
					</g>
					<g>
						<path d="M48.5,9.1c0-0.1,0.1-0.3,0.1-0.4c0-0.1,0-0.2-0.2-0.2c-0.1,0-0.2,0-0.3,0c-0.1,0-0.1,0-0.1,0.1c0,0.1,0,0.3,0,0.4
							C47.9,9,47.9,9,48,9C48.2,9.1,48.3,9.1,48.5,9.1z M48.1,8.5c0.1,0,0.2,0,0.3,0c0.1,0,0.1,0,0.1,0.1c0,0.1,0,0.3-0.1,0.4
							c-0.1,0-0.3,0-0.4,0C48,8.8,48,8.7,48.1,8.5z"/>
					</g>
					<g>
						<path d="M39.2,5.2c0.1,0.1,0.1,0.1,0.2,0.1C39.3,5.2,39.3,5.2,39.2,5.2c0-0.1-0.1-0.1-0.1,0c0,0.1-0.1,0.1,0,0.2
							C39.1,5.3,39.1,5.3,39.2,5.2c0,0.3,0.1,0.6,0.4,0.7c0.2,0.1,0.5,0,0.6-0.1c0,0-0.1,0-0.1,0c-0.1,0-0.2,0-0.3,0
							C39.5,5.7,39.3,5.6,39.2,5.2C39.2,5.2,39.2,5.2,39.2,5.2z"/>
					</g>
					<g>
						<path d="M36.9,28.6c0.1,0,0.3,0,0.4,0.1c0,0,0-0.1,0-0.1c0.1,0,0.2,0,0.3-0.1c-0.1-0.1-0.2,0-0.2-0.1c0,0,0,0,0.1-0.1
							c0,0,0.1,0,0.1-0.1c-0.1,0-0.1,0-0.1,0c-0.1,0-0.2,0-0.3,0c-0.2-0.1-0.2,0-0.3,0.1C36.8,28.5,36.8,28.5,36.9,28.6z"/>
					</g>
					<g>
						<path d="M43.6,11.2c0.1,0,0.2,0,0.3,0c0.1,0,0.2-0.1,0.2-0.2c0-0.1,0-0.2-0.1-0.2c-0.2-0.1-0.4-0.1-0.6-0.1
							c-0.1,0-0.1,0.1-0.1,0.2c0,0.1,0,0.2,0.1,0.2C43.4,11.1,43.5,11.1,43.6,11.2z M43.6,11.1c-0.1,0-0.2-0.1-0.2-0.1
							c-0.1,0-0.1-0.1-0.1-0.2c0-0.1,0.1-0.1,0.2-0.1c0.1,0,0.2,0,0.3,0c0.1,0,0.1,0,0.2,0.1c0.1,0.1,0.1,0.1,0,0.2
							C43.8,11,43.7,11.1,43.6,11.1z"/>
					</g>
					<g>
						<path d="M48.2,17.8c-0.1,0.1-0.2,0.1-0.4,0c-0.1,0-0.2,0-0.3,0.1c0,0,0,0,0.1,0c0,0,0,0.1,0,0.1c0.1,0,0.3,0,0.4,0.1
							c0,0,0,0,0-0.1c0.1,0,0.2,0,0.3-0.1c-0.1,0-0.2,0-0.2,0C48.1,17.9,48.2,17.9,48.2,17.8z"/>
					</g>
					<g>
						<path d="M37.6,26.5c0-0.1,0-0.2-0.1-0.2c0,0,0,0,0.1,0c0-0.1,0-0.1,0-0.2c-0.1,0-0.1-0.1-0.1-0.1c-0.1-0.1-0.2-0.1-0.3,0
							c0,0,0,0.1-0.1,0.1c0,0.1,0.1,0.2,0.2,0.2c0.1,0.2,0,0.4,0,0.6c0.1,0,0-0.1,0.1-0.2c0-0.1,0-0.1,0-0.2c0-0.1,0-0.1,0-0.2
							c0,0,0.1,0,0.1,0C37.5,26.4,37.5,26.4,37.6,26.5C37.6,26.5,37.6,26.5,37.6,26.5z"/>
					</g>
					<g>
						<path d="M43.6,12.5c0.1,0.1,0.2,0.2,0.4,0.2c0.1,0,0.2-0.1,0.2-0.3C44,12.2,43.7,12.2,43.6,12.5z"/>
					</g>
					<g>
						<path d="M45.4,8.2c0.1,0,0.1,0,0.2,0c-0.1,0.3-0.2,0.7-0.3,1c0,0,0-0.1,0-0.1c0.1-0.3,0.2-0.5,0.3-0.8c0-0.1,0-0.1,0.1-0.2
							c0.1,0,0.1-0.1,0.1-0.2c0,0,0,0-0.1,0c-0.1,0.1-0.1,0.1-0.2,0c0,0,0-0.1-0.1-0.1c0,0.1,0.1,0.2,0.1,0.3c-0.1,0-0.2,0-0.4,0
							c0,0.2-0.1,0.3-0.2,0.5c0,0,0,0.1,0,0.1c0.1,0,0.1-0.1,0.2-0.2C45.3,8.3,45.4,8.3,45.4,8.2z"/>
					</g>
					<g>
						<path d="M50.7,6.3c-0.2-0.1-0.3-0.2-0.5-0.3c-0.1,0-0.1,0-0.2,0c0.1,0.2,0.2,0.4,0.3,0.6C50.6,6.5,50.6,6.4,50.7,6.3z"/>
					</g>
					<g>
						<path d="M44,26.7c0-0.1,0-0.2,0-0.3c0,0,0-0.1,0-0.1c-0.1-0.1-0.2-0.1-0.3,0c-0.1,0.2-0.2,0.4-0.2,0.6c0,0,0,0.1,0,0.1
							c0.1,0.2,0.2,0.2,0.3,0.1C43.9,26.9,44,26.8,44,26.7z M43.6,26.6C43.6,26.6,43.6,26.6,43.6,26.6
							C43.6,26.5,43.6,26.5,43.6,26.6c0.1-0.1,0.1-0.2,0.1-0.3c0-0.1,0.1,0,0.1,0c0.1,0.2,0.1,0.4,0,0.6c0,0.1-0.1,0.1-0.1,0.1
							c-0.1,0-0.1,0-0.1-0.1C43.6,26.7,43.6,26.7,43.6,26.6z"/>
					</g>
					<g>
						<path d="M46.3,9.1c0-0.3,0-0.5,0-0.8c0.1,0,0.1,0,0.2,0.1c0.1,0.2,0.1,0.4,0.2,0.6c0,0,0,0,0,0c0,0,0-0.1,0-0.1
							c0-0.1-0.1-0.3-0.1-0.4c0,0,0-0.1,0-0.1c0-0.1,0-0.2-0.1-0.2c0,0-0.1,0-0.1,0c0-0.1,0.2-0.1,0.1-0.2c0,0,0,0,0,0
							c-0.1,0.1-0.1,0.1-0.2,0c0,0.1,0,0.1,0,0.2c0.1,0,0.1,0.1,0.1,0.2c0,0.2,0,0.4,0,0.6C46.3,9,46.3,9,46.3,9.1
							C46.3,9.1,46.3,9.1,46.3,9.1z"/>
					</g>
					<g>
						<path d="M47.3,24.9c0,0,0.1-0.1,0.1-0.1c0-0.1,0-0.1,0.1-0.2c0,0,0-0.1,0-0.2c0-0.1-0.1-0.1-0.2-0.1c-0.1,0-0.1,0-0.2,0
							c0,0-0.1,0-0.1,0c0,0,0,0.1,0,0.1c0,0-0.1,0.1-0.1,0.1c0,0,0.1,0,0.1,0c0,0,0-0.1,0.1-0.1C47.1,24.6,47.1,24.8,47.3,24.9z"/>
					</g>
					<g>
						<path d="M44.2,5c0,0,0,0.1-0.1,0.1c-0.2,0-0.3-0.1-0.4-0.2c0,0.1,0,0.2,0,0.2c0,0.1,0,0.2,0,0.3c0,0.1,0.1,0.2,0.3,0.2
							c0.1,0,0.2-0.1,0.2-0.2c0,0,0,0,0-0.1c0-0.1,0-0.2,0-0.2C44.2,5.1,44.2,5,44.2,5C44.2,5,44.2,5,44.2,5z M43.7,5.3
							c0-0.2,0.1-0.2,0.2-0.2c0.1,0,0.1,0.1,0.2,0.2c0,0.1,0,0.2-0.1,0.2c-0.1,0.1-0.2,0.1-0.2,0C43.7,5.4,43.7,5.3,43.7,5.3z"/>
					</g>
					<g>
						<path d="M42.1,4.9c0.1-0.1,0.1-0.1,0.2-0.2c0,0,0,0,0,0c0,0-0.1,0-0.1,0c-0.1,0.1-0.1,0.1-0.2,0.2c0-0.1,0-0.1-0.1-0.2
							c0,0,0,0,0,0c0,0.1,0,0.1,0,0.2c0,0.1,0,0.1,0.1,0.2c0,0.1,0.1,0.1,0.2,0.1c0.1-0.1,0.2-0.1,0.3-0.2c0,0,0.1-0.1,0-0.1
							C42.4,4.9,42.3,4.9,42.1,4.9z"/>
					</g>
					<g>
						<path d="M45.1,5C45.1,5,45.1,5,45.1,5C45.1,5,45.1,4.9,45.1,5C45,5,44.9,5,44.8,5c0,0-0.1,0-0.1,0c0-0.1,0-0.1-0.1-0.1
							c0,0.1,0,0.1,0.1,0.2c0,0.1,0,0.2,0,0.3c0,0.2,0.1,0.2,0.2,0.2c0.1,0,0.2-0.1,0.2-0.2C45.2,5.4,45.2,5.2,45.1,5z M45,5.1
							c0.1,0.1,0.1,0.2,0.1,0.3c0,0,0,0.1-0.1,0.1c-0.1,0.1-0.2,0-0.2-0.1C44.7,5.3,44.8,5.1,45,5.1z"/>
					</g>
					<g>
						<path d="M43.8,16.1c0-0.2-0.1-0.3-0.2-0.4c-0.1,0.1-0.1,0.2-0.2,0.2c-0.1-0.1-0.1-0.2-0.2-0.3c0,0-0.1,0.1-0.1,0.1
							c-0.1,0.1-0.1,0.1-0.2,0.2c0,0,0,0,0,0.1c0,0,0.1,0,0.1,0c0,0,0,0,0,0c0.1-0.1,0.1-0.1,0.2-0.2c0.1,0.1,0.1,0.2,0.2,0.3
							c0.1-0.1,0.1-0.1,0.2-0.2C43.7,15.9,43.7,16.1,43.8,16.1z"/>
					</g>
					<g>
						<path d="M43.1,33.3c0.1-0.1,0.3-0.1,0.3-0.2c0-0.1,0-0.1-0.1-0.1c-0.2,0-0.3,0.1-0.4,0.1c-0.1,0-0.1,0.1,0,0.2
							c0.1,0.1,0.2,0.2,0.4,0.2c0,0,0.1,0,0.1,0c0,0,0-0.1,0-0.1c0,0-0.1,0-0.1-0.1C43.2,33.4,43.2,33.4,43.1,33.3z"/>
					</g>
					<g>
						<path d="M41.8,8.1c0-0.2-0.1-0.2-0.2-0.2c-0.1,0-0.2,0-0.2,0C41.2,8,41,8.2,41,8.3c0,0.1,0.1,0.2,0.2,0.2c0,0,0.1,0,0.1-0.1
							c0.1-0.1,0.2-0.1,0.3,0c0,0,0.1,0.1,0.1,0.1c0.2,0,0.2-0.1,0.2-0.2c0,0,0,0,0,0c-0.1,0.1-0.1,0.1-0.2,0c0,0,0,0-0.1-0.1
							c-0.1-0.1-0.1-0.1-0.2,0c-0.1,0-0.1,0.1-0.2,0.1c0,0-0.1,0-0.1,0c0,0,0-0.1,0-0.1C41.2,8.1,41.2,8,41.4,8
							C41.5,8,41.6,8,41.8,8.1C41.7,8.1,41.7,8.1,41.8,8.1z"/>
					</g>
					<g>
						<path d="M51.4,6.7c0.2-0.1,0.3-0.3,0.4-0.4c0,0,0,0,0-0.1c-0.1,0-0.1,0-0.2,0c-0.1,0-0.3,0.1-0.5,0.1
							C51.3,6.5,51.4,6.6,51.4,6.7z"/>
					</g>
					<g>
						<path d="M41,2.9c0.1,0,0.1,0.1,0.2,0.1C41.1,2.9,41,2.8,41,2.9c-0.2-0.1-0.2,0-0.2,0.1C40.8,3,40.9,3,41,2.9
							C40.9,3,40.9,3,41,2.9c0,0.3,0.1,0.4,0.3,0.5c0.1,0.1,0.3,0.1,0.5,0.1c0.1,0,0.2,0,0.3,0c0,0,0.1,0,0.1-0.1
							c-0.1,0-0.1,0-0.1,0c-0.1,0-0.2,0-0.3,0c-0.3,0-0.5-0.1-0.7-0.3C41,3.1,41,3,41,2.9z"/>
					</g>
					<g>
						<path fill="#41404A" d="M38.9,16.6C38.9,16.6,38.9,16.6,38.9,16.6c-0.1,0.2-0.1,0.2-0.1,0.3c0.1,0,0.2,0,0.2,0
							c0.1-0.1,0.1-0.2,0-0.3c-0.1-0.1-0.3-0.2-0.5-0.1c-0.1,0-0.1,0.1-0.1,0.2C38.6,16.5,38.8,16.5,38.9,16.6z"/>
					</g>
					<g>
						<path d="M40.2,33.4c-0.1,0-0.3-0.1-0.4-0.1c-0.1,0-0.1,0-0.1,0.1c0,0.1,0,0.2,0,0.3c0.1,0.1,0.1,0.1,0.2,0.1
							C40.2,33.7,40.3,33.6,40.2,33.4z M39.9,33.4c0.1,0,0.2,0,0.3,0.1c-0.1,0.1-0.1,0.2-0.2,0.1C39.9,33.6,39.9,33.5,39.9,33.4z"/>
					</g>
					<g>
						<path d="M43,15.2c0.1,0,0.1-0.1,0.1-0.1c0.1,0,0.1,0.2,0.2,0.1c0-0.1-0.1-0.1-0.1-0.2c0.1-0.1,0.2-0.2,0.2-0.3
							c-0.1-0.1-0.1-0.1-0.2,0c0,0,0,0.1-0.1,0.1c0,0,0,0-0.1,0.1c0-0.1-0.1-0.1-0.1-0.2c-0.1,0-0.1,0-0.1,0.1
							c0,0.1,0.1,0.1,0.1,0.2C43,15,42.9,15,43,15.2C42.9,15.1,42.9,15.2,43,15.2z"/>
					</g>
					<g>
						<path d="M44,2.1C44.1,2,44.2,2,44.3,2c0.1,0.1,0.1,0.1,0.2,0.2c0-0.1,0-0.1-0.1-0.2c0.1,0,0.1-0.1,0.2-0.1c0,0,0-0.1,0-0.1
							c-0.1,0-0.1,0.1-0.2,0.1c-0.1,0.1-0.1,0.1-0.2,0c0,0-0.1-0.1-0.2-0.1c0,0.1,0,0.1,0.1,0.2C44.1,1.9,44,1.9,44,2
							C44,2,44,2,44,2.1z"/>
					</g>
					<g>
						<path d="M41.6,32.9c0,0.1,0.2,0.1,0.3,0.2c-0.1,0-0.1,0-0.2,0.1c0,0-0.1,0-0.1,0c0,0-0.1,0.1,0,0.1c0,0,0.1,0.1,0.1,0.1
							c0.2,0,0.3-0.1,0.5-0.2c0-0.1,0-0.1-0.1-0.1c-0.1-0.1-0.2-0.1-0.3-0.2C41.7,32.9,41.7,32.9,41.6,32.9z"/>
					</g>
					<g>
						<path d="M40.5,14.3c0-0.1,0-0.1-0.1-0.1c-0.2-0.2-0.3-0.3-0.5-0.5c0,0,0,0.1,0,0.1c0.1,0.1,0.2,0.2,0.3,0.3
							c0,0.1,0.1,0.1,0.1,0.2c-0.2,0.1-0.3,0.2-0.4,0.2c0,0-0.1,0-0.1,0.1c0,0,0,0,0,0.1c0,0,0,0,0.1,0C40,14.5,40.3,14.4,40.5,14.3
							z"/>
					</g>
					<g>
						<path fill="#41404A" d="M38.4,17.2c-0.2,0-0.3-0.1-0.5-0.1c-0.1,0.2,0,0.3,0.1,0.4c0,0,0.1,0,0.1,0
							C38.3,17.5,38.3,17.4,38.4,17.2z"/>
					</g>
					<g>
						<path d="M41.4,10.1c0-0.1,0-0.2,0-0.3c0,0,0-0.1-0.1-0.1c-0.1-0.1-0.2-0.1-0.3,0c-0.1,0.1-0.2,0.3-0.1,0.5c0,0,0,0.1,0,0.1
							c0.1,0.1,0.2,0.2,0.3,0C41.4,10.3,41.4,10.3,41.4,10.1z M41.2,9.8c0.1,0.2,0.1,0.3,0,0.5c0,0.1-0.1,0.1-0.1,0.1
							c-0.1,0-0.1,0-0.1-0.1c0-0.2,0-0.3,0.1-0.5C41.1,9.8,41.2,9.8,41.2,9.8z"/>
					</g>
					<g>
						<path d="M44.2,0.6C44,0.7,43.9,1.1,44,1.4c0.1,0,0.1-0.1,0.2-0.2c0-0.1,0-0.3,0.1-0.4C44.3,0.7,44.3,0.7,44.2,0.6z"/>
					</g>
					<g>
						<path d="M49.5,1.6c0.2-0.1,0.3-0.1,0.5,0c0,0,0,0-0.1,0c-0.1,0.1-0.1,0.1-0.1,0.2c0,0.1,0.1,0.1,0.2,0.1c0.1,0,0.1,0,0.2-0.1
							c0-0.1,0-0.2-0.1-0.2c-0.2-0.1-0.4-0.2-0.6-0.1C49.6,1.5,49.5,1.6,49.5,1.6z"/>
					</g>
					<g>
						<path d="M43.8,23.9c0,0.1,0.1,0.1,0.1,0.2c-0.1,0.1,0,0.2,0,0.3c0.1,0.1,0.1,0.2,0,0.3c-0.1,0.1-0.3,0-0.3-0.1
							c0-0.1,0.1-0.2,0.2-0.2c0,0,0.1,0,0.1,0.1c0,0,0,0.1-0.1,0.1c0,0,0,0-0.1-0.1c0,0,0,0.1,0,0.1c0,0,0.1,0,0.1,0
							c0.1,0,0.1-0.1,0.1-0.2c0-0.1-0.1-0.1-0.2-0.2C43.9,24.1,43.9,24.1,43.8,23.9c-0.1,0.1,0,0.1,0,0.2c-0.1,0.1-0.1,0.2-0.2,0.2
							c-0.1,0.1-0.1,0.2,0,0.4c0,0,0,0,0.1,0c0,0,0.1,0,0.1,0c0.2,0,0.2-0.1,0.2-0.3c0,0,0-0.1-0.1-0.1c0,0,0-0.1,0-0.1
							c0-0.1,0-0.1,0-0.1C43.9,24,43.8,24,43.8,23.9C43.8,23.9,43.8,23.9,43.8,23.9z"/>
					</g>
					<g>
						<path d="M48.9,2.1c0,0.1,0,0.2,0.1,0.3c0.1,0.1,0.1,0.1,0.2,0c0.1,0,0.2-0.1,0.2-0.2C49.3,2.2,49.1,2.2,48.9,2.1z"/>
					</g>
					<g>
						<path d="M43.8,27.6c0.1,0,0.1,0,0.2,0c0.1,0,0.1,0,0.1-0.1c0-0.1,0-0.1-0.1-0.1c-0.1,0-0.1,0-0.2,0c-0.1,0-0.2,0-0.2,0
							c-0.1,0-0.1,0-0.1,0.1c0,0.1,0,0.1,0.1,0.1C43.7,27.6,43.8,27.6,43.8,27.6C43.8,27.6,43.8,27.6,43.8,27.6z"/>
					</g>
					<g>
						<path d="M45.4,15.9c0,0,0,0.1-0.1,0.1c-0.1,0.1-0.2,0.2-0.3,0.2c-0.2,0-0.3-0.1-0.3-0.2c0-0.1,0-0.1-0.1-0.2c0,0,0,0,0,0
							c0,0.3,0.1,0.4,0.3,0.6c0.1,0,0.2,0,0.2,0c0.1,0,0.2-0.1,0.3-0.3C45.5,15.9,45.5,15.9,45.4,15.9z"/>
					</g>
					<g>
						<path d="M39.2,8.2C39,8.3,39,8.3,39,8.5c0.1,0,0.2-0.1,0.2-0.1c0.1,0.1,0.1,0.1,0.2,0.2c0.1-0.1,0-0.2-0.1-0.2
							c0.1-0.1,0.2-0.1,0.2-0.3c-0.1,0.1-0.2,0.1-0.2,0.2c-0.1-0.1-0.1-0.1-0.2-0.2C39,8.1,39.1,8.2,39.2,8.2z"/>
					</g>
					<g>
						<path d="M43.8,14.6c-0.1,0.1,0,0.2,0,0.3c0,0.1-0.1,0.1-0.2,0.2c0,0,0,0,0.1,0.1c0.1-0.1,0.1-0.1,0.2-0.2
							c0.1,0.1,0.1,0.1,0.2,0.2c0.1,0,0.1-0.1,0-0.2c0,0-0.1-0.1-0.1-0.2c0.1-0.1,0.2-0.2,0.2-0.3c-0.1,0-0.1,0.1-0.2,0.1
							C43.9,14.8,43.9,14.7,43.8,14.6z"/>
					</g>
					<g>
						<path d="M48.1,11.7c0,0.1,0,0.1,0,0.1c0,0.1,0.1,0.2,0.2,0.1c0.1-0.1,0.1-0.2,0.1-0.3c0-0.1-0.2-0.2-0.3-0.1
							C48.1,11.6,48.1,11.7,48.1,11.7z"/>
					</g>
					<g>
						<path d="M42.1,28.9c-0.1-0.1-0.2-0.2-0.3-0.2c-0.1,0-0.2,0-0.2,0.1c0,0.1,0,0.1,0.1,0.2C41.8,29,42,29,42.1,28.9z"/>
					</g>
					<g>
						<path fill="#41404A" d="M37.8,16.5C37.8,16.5,37.8,16.5,37.8,16.5c-0.1,0.1-0.2,0.1-0.1,0.2c0,0.1,0.1,0.1,0.2,0.1
							c0.1,0,0.1-0.1,0.1-0.1c0-0.1,0-0.3-0.2-0.4c-0.1,0-0.2,0-0.3,0c-0.1,0-0.1,0-0.1,0.2c0.1,0,0.2-0.1,0.2-0.1
							C37.7,16.4,37.8,16.4,37.8,16.5z"/>
					</g>
					<g>
						<path d="M39.6,32.8c0,0,0-0.1,0-0.1c0-0.1,0-0.1-0.1-0.1c-0.1,0-0.1,0-0.1,0.1c0,0.1,0,0.2,0,0.3c0,0.1,0.1,0.1,0.1,0.1
							c0.1,0,0.1,0,0.1-0.1C39.6,32.9,39.6,32.8,39.6,32.8L39.6,32.8z"/>
					</g>
					<g>
						<path d="M37.4,20.1c0.1,0,0.1,0,0.1,0c0-0.1,0.1-0.2,0.2-0.2c0.1,0,0.2,0.1,0.2,0.2c0,0,0,0,0,0c0,0.1,0,0.1,0.1,0.1
							c0.1,0,0.1-0.1,0.1-0.1c0-0.1-0.1-0.3-0.3-0.3C37.7,19.7,37.5,19.8,37.4,20.1z"/>
					</g>
					<g>
						<path d="M39.5,21.6c0.1,0.1,0.1,0.1,0.1,0c0,0,0-0.1,0.1-0.1c0.1-0.1,0.2-0.1,0.3,0c0,0,0,0.1,0.1,0.1c0,0,0,0.1,0,0.1
							c0,0,0,0.1,0.1,0.1c0,0,0.1,0,0.1-0.1c0-0.1-0.1-0.3-0.3-0.3C39.7,21.2,39.5,21.4,39.5,21.6z"/>
					</g>
					<g>
						<path d="M47.8,29c-0.2,0.2-0.2,0.4-0.1,0.7c0.2-0.1,0.2-0.2,0.2-0.4C47.9,29.2,47.9,29.1,47.8,29z"/>
					</g>
					<g>
						<path d="M40.6,29c0.1,0.1,0.3,0.2,0.4,0.1c0.1-0.1,0.2,0,0.3,0.1c0,0,0,0,0-0.1c0.1,0,0.1,0,0.2,0.1c0,0,0,0,0.1,0
							c0,0,0.1,0,0.1-0.1c0,0,0-0.1,0-0.1c-0.1,0-0.2-0.1-0.3-0.1c-0.1,0-0.1,0-0.2,0c0,0,0,0,0,0c-0.1,0-0.2,0-0.3-0.1
							C40.8,28.9,40.7,28.9,40.6,29z"/>
					</g>
					<g>
						<path d="M38.7,26.7C38.7,26.6,38.7,26.6,38.7,26.7C38.7,26.6,38.7,26.6,38.7,26.7c0.1-0.2,0.1-0.3,0.1-0.4
							c0-0.1-0.1-0.1-0.1-0.1c-0.1,0-0.1,0-0.1,0.1c-0.1,0.1-0.1,0.2,0,0.4c0,0.1,0,0.1,0,0.1C38.6,26.7,38.6,26.7,38.7,26.7z"/>
					</g>
					<g>
						<path d="M40.8,4.9C40.9,5,41,5.1,41.2,5.2c0.1,0,0.1,0,0.2,0c0.1-0.1,0.1-0.2,0.2-0.3c0,0,0,0,0,0c0,0,0,0.1-0.1,0.1
							c-0.1,0-0.2-0.2-0.3-0.3c0,0.1,0.1,0.2,0.2,0.3C41.1,4.9,41,4.8,40.8,4.9z M41.2,5.2C41.1,5.1,41,5,40.9,4.9
							c0.2,0,0.3,0,0.5,0.1C41.3,5,41.3,5.1,41.2,5.2z"/>
					</g>
					<g>
						<path d="M40.8,33c0,0,0-0.1,0-0.1c0-0.1-0.1-0.1-0.1-0.1c-0.1,0-0.1,0-0.1,0.1c0,0.1,0,0.2,0,0.3c0,0.1,0,0.1,0.1,0.1
							c0.1,0,0.1,0,0.2-0.1C40.8,33.1,40.8,33.1,40.8,33C40.8,33,40.8,33,40.8,33z"/>
					</g>
					<g>
						<path d="M45.2,13.1c0.1-0.1,0.2-0.2,0.2-0.4c0-0.1,0-0.2-0.1-0.3C45.1,12.5,45.1,12.8,45.2,13.1z"/>
					</g>
					<g>
						<path d="M37.2,21.3c0.1,0,0.1,0,0.1,0c0,0,0-0.1,0.1-0.1c0-0.1,0.1-0.1,0.2-0.1c0.1,0,0.1,0,0.2,0.1c0,0,0,0.1,0,0.1
							c0,0,0,0.1,0.1,0.1c0,0,0.1-0.1,0.1-0.1c0-0.1-0.1-0.2-0.2-0.3C37.4,20.9,37.2,21.1,37.2,21.3z"/>
					</g>
					<g>
						<path d="M39.4,27c0-0.1-0.1-0.2-0.2-0.2c-0.1,0-0.2,0-0.3,0c-0.1,0-0.1,0.1-0.2,0.2c0,0.1,0,0.1,0.1,0.2c0.1,0,0.1,0,0.2,0
							C39.1,27.2,39.2,27.1,39.4,27z M38.7,27.1c0-0.1,0-0.1,0-0.1c0.1,0,0.2,0,0.2,0c0.1,0,0.1,0,0.2,0.1c-0.1,0-0.1,0.1-0.2,0.1
							C38.9,27.1,38.8,27.2,38.7,27.1z"/>
					</g>
					<g>
						<path d="M42.2,1.1c-0.1,0-0.3,0-0.4-0.1c0,0,0,0.1,0,0.1c0,0.2,0,0.3,0.1,0.5c0,0,0,0.1,0,0.1c0,0.1,0.1,0.1,0.1,0
							c0-0.1,0.1-0.1,0.1-0.2C42.1,1.4,42.2,1.3,42.2,1.1C42.2,1.2,42.2,1.2,42.2,1.1z M41.9,1.8c0-0.2-0.1-0.4-0.1-0.6
							c0.1,0,0.2,0,0.3,0C42,1.4,42.1,1.6,41.9,1.8z"/>
					</g>
					<g>
						<path d="M39.2,7C39,7.1,39,7.5,39.1,7.7c0.1,0,0.1-0.1,0.1-0.1C39.2,7.4,39.3,7.2,39.2,7C39.2,7,39.2,7,39.2,7z"/>
					</g>
					<g>
						<path d="M40.4,20.5C40.4,20.5,40.5,20.5,40.4,20.5c0.1,0,0.1-0.1,0.1-0.1c0-0.2-0.2-0.4-0.5-0.3c-0.1,0-0.3,0.2-0.3,0.3
							c0,0,0,0.1,0,0.1c0,0,0.1,0,0.1,0c0,0,0,0,0-0.1c0,0,0-0.1,0-0.1c0-0.1,0.1-0.1,0.2-0.1c0.1,0,0.2,0.1,0.2,0.2
							C40.3,20.3,40.4,20.4,40.4,20.5z"/>
					</g>
					<g>
						<path d="M47.3,8.9c0.2-0.1,0.3-0.1,0.5-0.2c0.1,0,0.1-0.1,0-0.1c-0.1-0.1-0.2-0.3-0.3-0.4c0,0,0,0,0,0c0,0.2,0.1,0.3,0.2,0.4
							c-0.1,0-0.2,0.1-0.3,0.1C47.4,8.7,47.3,8.7,47.3,8.9z"/>
					</g>
					<g>
						<path d="M49.3,16.1c0.1-0.1,0.1-0.2,0.2-0.3c0,0,0,0,0,0c0-0.1-0.1-0.1-0.1-0.1c-0.1,0-0.1,0.1-0.1,0.1
							C49.2,15.8,49.2,16,49.3,16.1C49.3,16.1,49.2,16.1,49.3,16.1C49.3,16.2,49.3,16.2,49.3,16.1C49.4,16.1,49.4,16.1,49.3,16.1z"
							/>
					</g>
					<g>
						<path d="M44.7,1.5c0.1,0,0.1-0.1,0.1-0.2c0-0.1,0.1-0.3,0.1-0.4c0,0,0,0,0-0.1c0,0,0,0-0.1,0c0,0,0,0-0.1,0c0,0,0,0,0,0.1
							C44.7,1.1,44.6,1.2,44.7,1.5C44.7,1.4,44.7,1.5,44.7,1.5C44.7,1.5,44.7,1.5,44.7,1.5z"/>
					</g>
					<g>
						<path d="M38.2,24.2c0,0,0,0.1,0.1,0.2c0.1-0.1,0.1-0.1,0.1-0.2c0-0.1,0.1-0.1,0.1-0.2c0,0,0,0,0,0c-0.1,0.1-0.3,0.1-0.4,0.1
							c-0.1,0-0.3-0.1-0.4-0.2c0,0.1,0.1,0.2,0.1,0.4c0,0,0.1-0.1,0.1-0.1C38,24.1,38.1,24.1,38.2,24.2z"/>
					</g>
					<g>
						<path d="M50,16.5c0-0.1-0.1-0.1-0.2-0.2c-0.1-0.1-0.3,0-0.4,0.1c-0.1,0.1-0.1,0.1,0,0.2c0,0.1,0.1,0.1,0.2,0.1
							c0.1,0,0.1,0,0.2-0.1C49.8,16.6,49.9,16.6,50,16.5z M49.8,16.5c-0.1,0.1-0.2,0.1-0.2,0.1c0,0-0.1,0-0.1,0
							c-0.1,0-0.1-0.1,0-0.1c0,0,0.1-0.1,0.1-0.1C49.6,16.4,49.7,16.4,49.8,16.5z"/>
					</g>
					<g>
						<path d="M43.8,8.5c-0.1,0.1-0.1,0.2-0.1,0.4c0,0.1,0.1,0.1,0.2,0.1c0.1,0,0.2,0,0.3,0c0.1-0.1,0.1-0.1,0.1-0.2
							c0-0.1,0-0.3,0-0.4c0,0,0-0.1,0-0.1c-0.1,0-0.2,0-0.3,0C43.8,8.3,43.8,8.4,43.8,8.5C43.8,8.5,43.7,8.5,43.8,8.5
							C43.8,8.5,43.8,8.5,43.8,8.5c0.1-0.2,0.1-0.2,0.3-0.2c0.1,0,0.1,0,0.1,0.1c0,0.1,0,0.3,0,0.4c0,0,0,0.1,0,0.1
							c-0.1,0-0.2,0-0.2,0c-0.1,0-0.1-0.1-0.1-0.1C43.7,8.7,43.7,8.6,43.8,8.5z"/>
					</g>
					<g>
						<path d="M42,0.8C42.1,1,42.2,1,42.3,0.9c0,0,0.1,0,0.1,0c0.1,0,0.1,0,0.2,0c0.1,0,0.1,0,0.2,0c0.1,0,0.1-0.1,0.1-0.2
							c0,0-0.1-0.1-0.1-0.1c-0.2-0.1-0.4-0.1-0.6,0.1C42.1,0.7,42.1,0.8,42,0.8z M42.1,0.8c0.1-0.1,0.2-0.2,0.3-0.2
							c0,0,0.1,0.1,0.1,0.1c0,0,0.1,0,0.1-0.1c0.1,0,0.2,0.1,0.2,0.1c0,0,0,0.1,0,0.1c0,0-0.1,0-0.1,0.1c0,0,0,0-0.1,0
							c-0.1,0-0.3,0-0.4,0c0,0,0,0-0.1,0C42.2,0.9,42.1,0.9,42.1,0.8z"/>
					</g>
					<g>
						<path d="M37.6,14.4c0.1,0,0.2,0,0.2,0c0.1,0,0.1,0,0.1-0.1c0-0.1,0-0.2-0.1-0.2c-0.1,0-0.2,0-0.3,0
							C37.5,14.1,37.5,14.2,37.6,14.4C37.5,14.3,37.6,14.3,37.6,14.4z"/>
					</g>
					<g>
						<path d="M50.2,13.4c-0.1,0-0.3,0-0.4-0.1c0,0.1,0,0.1,0,0.2c0,0.1,0,0.3,0.1,0.4c0,0.1,0.1,0.1,0.2,0.1c0,0,0.1-0.1,0.1-0.1
							C50.2,13.7,50.2,13.6,50.2,13.4C50.2,13.5,50.2,13.4,50.2,13.4z M50.1,13.5c0,0.1,0,0.2-0.1,0.3c0,0.1,0,0.1-0.1,0.2
							c0,0,0,0-0.1,0.1c0-0.1,0-0.2,0-0.3c0-0.1,0-0.2,0-0.3C50,13.4,50,13.5,50.1,13.5z"/>
					</g>
					<g>
						<path d="M50.4,13.2C50.4,13.2,50.4,13.2,50.4,13.2c0.2,0,0.2,0,0.3,0c0.1,0,0.1,0,0.2,0c0.1,0,0.1-0.1,0.1-0.2
							c0-0.1-0.1-0.1-0.2-0.1c-0.2-0.1-0.4,0-0.6,0.1c0,0-0.1,0.1,0,0.1c0,0.1,0.1,0.1,0.1,0.1C50.3,13.3,50.3,13.2,50.4,13.2
							c0,0-0.1,0-0.2,0c0,0-0.1,0-0.1-0.1c0.1-0.1,0.2-0.1,0.3-0.2c0.1,0,0.1,0.1,0.1,0.1c0,0,0.1,0,0.1-0.1c0.1,0,0.1,0.1,0.2,0.1
							c0,0,0.1,0.1,0,0.1c0,0.1-0.1,0.1-0.1,0.1c-0.1,0-0.1,0-0.2,0C50.6,13.1,50.5,13.1,50.4,13.2z"/>
					</g>
					<g>
						<path d="M38.1,11.7c-0.1,0-0.1,0-0.1,0c-0.1,0-0.1,0.1-0.1,0.2C38,12,38.2,12,38.3,12c0.1,0,0.1-0.2,0-0.2
							C38.2,11.7,38.2,11.7,38.1,11.7z"/>
					</g>
					<g>
						<path d="M41.2,0.7C41.2,0.7,41.2,0.7,41.2,0.7c0-0.2,0-0.2,0.2-0.2c0.1,0,0.2,0,0.2,0.1c0.1,0,0.1,0,0.1,0
							c0.1,0.1,0.2,0.1,0.2,0.2c0,0.1-0.1,0.1-0.2,0.1c0,0-0.1,0-0.1,0c-0.1,0-0.2-0.1-0.3-0.1C41.3,0.8,41.2,0.7,41.2,0.7
							c0,0.1,0.1,0.1,0.1,0.1c0.1,0,0.3,0,0.4,0.1c0.1,0.1,0.2,0,0.3-0.1c-0.1-0.2-0.2-0.3-0.4-0.3c-0.1,0-0.2-0.1-0.3,0
							c-0.1,0-0.1,0-0.2,0.1C41.1,0.6,41.1,0.7,41.2,0.7z"/>
					</g>
					<g>
						<path d="M41.2,10.9c0.1,0,0.2,0,0.2,0c0.1,0,0.1-0.1,0.1-0.1c0-0.1,0-0.1-0.1-0.1c-0.1-0.1-0.3,0-0.4,0c0,0-0.1,0-0.1,0.1
							c0,0,0,0.1,0.1,0.1C41.1,10.9,41.2,10.9,41.2,10.9z"/>
					</g>
					<g>
						<path d="M48.4,1.5c0.3-0.1,0.3-0.1,0.5,0c0,0-0.1,0-0.1,0c-0.1,0-0.1,0.1-0.1,0.1c0,0.1,0.1,0.1,0.1,0.1c0,0,0.1,0,0.1,0
							C49,1.7,49,1.7,49,1.6c0-0.1,0-0.1-0.1-0.2C48.8,1.3,48.5,1.3,48.4,1.5C48.4,1.4,48.4,1.5,48.4,1.5z"/>
					</g>
					<g>
						<path d="M45.4,28.7c0,0.1,0,0.2-0.1,0.3c0.1,0.1,0.3,0.1,0.4,0C45.7,28.8,45.6,28.8,45.4,28.7z"/>
					</g>
					<g>
						<path d="M39.3,12.1c0.1,0,0.1,0,0.2,0c0.1,0,0.1-0.1,0-0.1c-0.1-0.1-0.2-0.1-0.3-0.1c0,0-0.1,0-0.1,0c-0.1,0-0.1,0.1,0,0.2
							C39.2,12.1,39.3,12.1,39.3,12.1z"/>
					</g>
					<g>
						<path d="M49.3,18.4C49.3,18.4,49.3,18.4,49.3,18.4c-0.2,0.2-0.3,0.4-0.3,0.5c0,0.1,0.1,0.1,0.2,0.1c0.1,0,0.1,0,0.2-0.2
							c0-0.1,0-0.2,0.1-0.3C49.5,18.4,49.5,18.4,49.3,18.4z M49.3,18.7c-0.1,0-0.1-0.1-0.2-0.1C49.2,18.7,49.3,18.8,49.3,18.7
							c0,0.1,0,0.1,0,0.2c0,0,0,0.1-0.1,0.1c-0.1,0-0.1,0-0.1-0.1c0,0,0-0.1,0-0.1c0-0.1,0-0.3,0.2-0.4c0,0,0.1,0,0.1,0
							c0,0,0,0.1,0,0.1C49.4,18.6,49.4,18.7,49.3,18.7z"/>
					</g>
					<g>
						<path d="M39.7,7.9c0.1-0.2,0.1-0.5,0.1-0.7c0,0,0,0,0-0.1c-0.1,0.1-0.2,0.4-0.2,0.6C39.6,7.7,39.6,7.8,39.7,7.9z"/>
					</g>
					<g>
						<path d="M46.2,5.8c0-0.2-0.1-0.3-0.2-0.5c-0.2,0-0.3,0.1-0.4,0.2c0,0,0,0.1,0,0.1c0.1-0.1,0.2-0.2,0.4-0.2
							C46.1,5.6,46,5.8,46.2,5.8z"/>
					</g>
					<g>
						<path d="M44.1,26.9c0,0,0,0.1,0,0.1c0,0.1,0.1,0.1,0.1,0.1c0.1,0,0.1,0,0.1-0.1c0-0.1,0-0.2,0-0.3c0-0.1,0-0.1-0.1-0.1
							c-0.1,0-0.1,0-0.1,0.1C44.2,26.8,44.1,26.8,44.1,26.9z"/>
					</g>
					<g>
						<path d="M44.7,24.4c-0.1,0.1-0.1,0.1-0.3-0.1c0,0.3,0,0.5,0.1,0.7c0,0,0.1-0.1,0.1-0.1c0-0.1,0.1-0.2,0.1-0.3
							c0,0,0-0.1,0.1-0.1c0,0,0.1-0.1,0-0.2c0,0,0,0.1-0.1,0.1C44.8,24.5,44.7,24.4,44.7,24.4z M44.6,24.9c0-0.1-0.1-0.2-0.1-0.3
							c0,0,0.1,0,0.1,0c0,0,0,0,0,0c0.1,0,0.1,0,0.1,0.1C44.7,24.7,44.6,24.7,44.6,24.9z"/>
					</g>
					<g>
						<path d="M40.1,11.3c-0.1,0.1-0.1,0.2-0.2,0.2c0,0,0,0.1,0,0.2c0,0.1,0.1,0.1,0.1,0.1c0.1,0,0.1,0,0.1-0.1c0-0.1,0-0.1,0-0.2
							c0,0,0-0.1,0-0.1C40.2,11.4,40.2,11.4,40.1,11.3C40.2,11.3,40.1,11.3,40.1,11.3z"/>
					</g>
					<g>
						<path d="M38.8,29.2c0-0.1,0-0.1,0.1-0.2c0-0.1,0-0.1,0-0.2c0,0-0.1-0.1-0.2,0c0,0-0.1,0.1-0.1,0.1c-0.1,0.1-0.1,0.3-0.1,0.4
							c0,0.1,0.2,0.2,0.3,0.1c0,0,0.1-0.1,0.1-0.1C38.8,29.3,38.8,29.2,38.8,29.2C38.8,29.2,38.8,29.2,38.8,29.2z M38.5,29.2
							c0-0.1,0-0.1,0.1-0.2c0,0,0.1-0.1,0.1-0.1c0,0,0.1,0,0.1,0c0,0,0,0.1,0,0.1c-0.1,0.1-0.1,0.2-0.1,0.4c0,0.1-0.1,0.1-0.2,0.1
							C38.5,29.3,38.5,29.3,38.5,29.2z"/>
					</g>
					<g>
						<path d="M45,31.3c0,0,0,0.1,0.1,0.2c0.1,0,0.1,0,0.2,0c0.1,0,0.1-0.1,0.1-0.2c0,0,0,0,0,0c0-0.1-0.1-0.1-0.1-0.1
							C45,31.1,45,31.2,45,31.3z"/>
					</g>
					<g>
						<path d="M48.7,29.2c-0.2,0.1-0.3,0.4-0.1,0.6C48.7,29.7,48.7,29.4,48.7,29.2z"/>
					</g>
					<g>
						<path d="M47.8,30.3c0.2,0,0.2,0,0.4,0.1c0.1-0.1,0.1-0.1,0-0.1c-0.1,0-0.1,0-0.2,0c-0.1,0-0.1,0-0.2,0
							c-0.1-0.2-0.1-0.2-0.2-0.2c0,0,0,0,0,0.1c0,0,0,0,0,0c0.1,0.2,0.1,0.3-0.1,0.4c0,0,0,0,0,0C47.7,30.5,47.7,30.5,47.8,30.3z"/>
					</g>
					<g>
						<path d="M46.1,8.5c-0.1,0-0.1,0-0.2-0.1c0,0,0,0,0,0.1c0,0.2,0,0.3,0,0.5c0,0.1,0,0.1,0,0.2c0,0,0,0.1,0,0.1c0,0,0.1,0,0.1,0
							C46,9.1,46,9.1,46,9C46.1,8.9,46.1,8.7,46.1,8.5z M45.9,9.1c0-0.2,0-0.4,0.1-0.6c0,0,0.1,0,0.1,0C46,8.8,46,8.9,45.9,9.1
							C45.9,9.1,45.9,9.1,45.9,9.1z"/>
					</g>
					<g>
						<path d="M49.9,13c0,0,0,0.1,0,0.1c0,0-0.1,0-0.1,0c0,0-0.1,0-0.1,0c-0.1-0.1-0.2-0.1-0.4-0.1c-0.1,0-0.1,0-0.2-0.2
							c0.1-0.1,0.2-0.1,0.3-0.1c0,0,0,0,0.1,0c0,0.1,0.1,0.1,0.2,0.1C49.7,12.9,49.8,12.9,49.9,13c-0.1-0.1-0.2-0.2-0.3-0.2
							c-0.1,0-0.2,0-0.3,0c0,0,0,0,0,0c-0.1,0-0.2,0.1-0.2,0.2c0,0.1,0.1,0.2,0.2,0.2c0.1,0,0.3,0,0.4,0.1c0.1,0,0.2,0,0.3,0
							C50,13,49.9,13,49.9,13z"/>
					</g>
					<g>
						<path d="M40.5,31.1c0.1-0.1,0.2-0.1,0.3-0.2c0.1,0.1,0.1,0.1,0.2,0.2c0,0,0.1,0,0.1,0c-0.1,0-0.1-0.1-0.2-0.1
							c0-0.1,0.2-0.1,0.1-0.3c-0.1,0-0.1,0.1-0.2,0.1c-0.1,0-0.1-0.2-0.2-0.1c0,0.1,0.1,0.1,0.1,0.2C40.6,31,40.4,30.9,40.5,31.1z"
							/>
					</g>
					<g>
						<path d="M49.7,9c0.1-0.1,0.2-0.1,0.3-0.2c0.1,0.1,0.1,0.2,0.2,0.2c0,0,0.1,0,0.1-0.1c-0.1-0.1-0.2-0.2-0.3-0.4
							c-0.1,0.1-0.2,0.1-0.3,0.2C49.7,8.8,49.7,8.8,49.7,9z"/>
					</g>
					<g>
						<path d="M49,8.3c-0.1,0.1-0.2,0.1-0.3,0.2c-0.1,0.1-0.1,0.1,0,0.2c0.1,0.1,0.1,0.1,0.2,0.2c0,0,0.1,0,0.1,0
							c-0.1-0.1-0.1-0.2-0.2-0.3c0.1-0.1,0.2-0.1,0.3-0.2C49.1,8.4,49.1,8.3,49,8.3C49.1,8.3,49.1,8.3,49,8.3z"/>
					</g>
					<g>
						<path d="M40.2,1.6c0-0.1-0.1-0.1-0.1-0.2c0,0,0.1,0,0.1,0c0-0.1,0-0.1,0-0.2c0,0-0.1,0-0.1,0c0,0,0-0.1,0-0.1
							c-0.1,0-0.1-0.1-0.2-0.1c0,0.1,0,0.1,0,0.1c0,0-0.1,0-0.1,0c0,0,0.1,0,0.1,0.1c0,0-0.1,0.1-0.1,0.1c0,0,0,0,0,0
							c0,0,0.1,0,0.1,0c0,0,0,0,0,0.1c0,0,0.1-0.1,0.1-0.1C40.1,1.5,40,1.6,40.2,1.6z"/>
					</g>
					<g>
						<path d="M41.4,24.4c-0.2,0-0.3,0-0.5-0.1c0,0.1,0,0.2,0.1,0.3C41.3,24.7,41.4,24.6,41.4,24.4z"/>
					</g>
					<g>
						<path d="M38.9,14.3c0,0.1,0,0.2,0.1,0.1c0.1,0,0.1,0,0.2,0c0.1,0,0.1-0.1,0.1-0.1c0-0.1-0.2-0.2-0.3-0.1
							C39,14.2,38.9,14.2,38.9,14.3z"/>
					</g>
					<g>
						<path d="M44.8,31.7c-0.2,0-0.3-0.1-0.5-0.1c-0.1,0.1,0,0.3,0,0.4c0,0.1,0.1,0.1,0.2,0.1c0.1,0,0.2,0,0.2-0.1
							C44.8,31.9,44.8,31.8,44.8,31.7z M44.7,31.8c0,0.1,0,0.2,0,0.2c-0.1,0.1-0.3,0.1-0.3,0c0-0.1-0.1-0.2,0-0.3
							C44.5,31.7,44.6,31.7,44.7,31.8z"/>
					</g>
					<g>
						<path d="M38.1,12.1c0.1,0.1,0.2,0,0.3,0.1c0,0-0.1,0-0.1,0c0,0,0,0,0,0c0.1,0,0.1,0,0.2,0c0,0,0.1,0,0.2,0c0.1,0,0.1,0,0.2,0
							c0,0,0.1,0,0.1,0c0,0-0.1,0-0.1,0c0,0,0,0,0,0c0.1,0,0.1,0,0.2,0c0,0,0.1,0,0.1,0c0,0,0-0.1,0-0.1c-0.1,0-0.2-0.1-0.3-0.1
							c-0.1,0-0.1,0-0.2,0c-0.2,0-0.3-0.1-0.4-0.1C38.3,12,38.2,12,38.1,12.1z"/>
					</g>
					<g>
						<path d="M39.8,26.3C39.8,26.3,39.8,26.3,39.8,26.3c-0.1-0.1-0.1-0.1-0.1-0.2c-0.1,0-0.2,0.1-0.2,0.2c0,0.1,0,0.2,0.1,0.3
							C39.7,26.6,39.8,26.5,39.8,26.3L39.8,26.3z"/>
					</g>
					<g>
						<path d="M45,13.8c0.2,0,0.2-0.1,0.3-0.2c0.1,0,0.3,0,0.4,0.1c0,0,0-0.1,0-0.1c-0.1-0.1-0.3-0.1-0.4-0.1c0-0.1,0-0.1-0.1-0.1
							c0,0-0.1-0.1-0.1-0.1c0,0.1,0,0.1,0,0.1c0,0,0,0,0,0C45.3,13.6,45.2,13.6,45,13.8C45,13.8,45,13.8,45,13.8z"/>
					</g>
					<g>
						<path d="M48.1,13.5c0,0-0.1,0-0.1,0c0,0,0-0.1,0-0.1c0,0-0.1,0-0.1,0c0,0-0.1,0-0.1,0c0,0.1,0,0.1,0,0.1c0,0-0.1,0-0.1,0
							c0.1,0,0.1,0,0.1,0.1c0,0-0.1,0.1-0.1,0.1c0,0,0,0,0.1,0c0,0,0.1,0,0.1,0c0,0.1,0.1,0,0.1-0.1c0.1,0,0.1,0.1,0.2,0.1
							c0-0.1-0.1-0.1-0.1-0.2c0,0,0.1,0,0.1,0C48.1,13.6,48.1,13.5,48.1,13.5z"/>
					</g>
					<g>
						<path d="M44.2,33.3c0,0.1,0.1,0.2,0.1,0.2c0.1,0,0.2-0.1,0.2-0.2c0-0.1-0.1-0.2-0.2-0.2C44.3,33.1,44.2,33.2,44.2,33.3z"/>
					</g>
					<g>
						<path d="M46.9,5.4c-0.2,0.1-0.3,0.3-0.3,0.4c0,0,0,0,0,0.1c0.1-0.2,0.1-0.3,0.3-0.4c0.1,0.1,0.2,0.3,0.3,0.4c0,0,0-0.1,0-0.1
							c0-0.1,0-0.1-0.1-0.2C47.1,5.6,47,5.5,46.9,5.4z"/>
					</g>
					<g>
						<path d="M46.1,12.5c-0.2,0.2-0.2,0.4-0.1,0.6c0.1,0,0.1-0.1,0.1-0.2C46.1,12.8,46.2,12.7,46.1,12.5z"/>
					</g>
					<g>
						<path d="M41.5,10.3c0,0.1,0,0.1,0,0.1c0,0.1,0,0.1,0.1,0.1c0.1,0,0.1,0,0.1-0.1c0-0.1,0-0.2,0-0.3c0-0.1-0.1-0.1-0.2,0
							C41.6,10.2,41.5,10.3,41.5,10.3z"/>
					</g>
					<g>
						<path d="M47.5,31.9C47.5,31.9,47.4,31.8,47.5,31.9c-0.1-0.1,0-0.2,0-0.3c-0.1-0.1-0.3-0.2-0.4-0.3c0,0,0,0-0.1,0
							c0.1,0.1,0.2,0.1,0.3,0.2c0,0.1,0,0.2,0,0.3c-0.1,0-0.2,0-0.4,0c0,0,0,0,0,0c0,0,0.1,0,0.1,0.1C47.2,31.9,47.3,31.9,47.5,31.9
							C47.4,31.9,47.5,31.9,47.5,31.9z"/>
					</g>
					<g>
						<path d="M49.3,9.2C49.2,9,49.1,9,48.9,9c0,0-0.1,0-0.1,0.1c0,0,0,0.1,0.1,0.1c0.1,0.1,0.1,0.1,0.2,0
							C49.2,9.3,49.2,9.2,49.3,9.2z"/>
					</g>
					<g>
						<path d="M40.6,0.4c-0.1,0-0.2,0-0.3,0.1c-0.1,0.1-0.1,0.2,0,0.3c0.1,0.1,0.1,0.1,0.2,0.1c0,0,0-0.1,0-0.1c-0.1,0-0.1,0-0.1,0
							c0,0-0.1-0.1-0.1-0.1c0-0.1,0-0.1,0.1-0.1C40.5,0.6,40.5,0.5,40.6,0.4C40.6,0.5,40.6,0.5,40.6,0.4z"/>
					</g>
					<g>
						<path d="M50.2,15.6c-0.1,0.1-0.2,0.3-0.1,0.4c0,0.1,0.1,0.1,0.2,0C50.4,15.9,50.4,15.7,50.2,15.6z"/>
					</g>
					<g>
						<path d="M41.2,26.6c0.1,0,0.2-0.1,0.2-0.1c0-0.1-0.1-0.2-0.1-0.2c-0.1,0-0.2,0-0.2,0.1C41,26.5,41.1,26.5,41.2,26.6z"/>
					</g>
					<g>
						<path d="M44.7,14.9c-0.1,0.2,0,0.3,0.1,0.4c0.1,0,0.1,0.1,0.1,0.1c0,0.1,0.1,0,0.1,0c0-0.1,0-0.1,0-0.2
							C44.9,15.2,44.9,15.2,44.7,14.9z"/>
					</g>
					<g>
						<path d="M41.9,26.4c0,0.1,0,0.2,0.2,0.2c0.1,0,0.2,0,0.2-0.1c0-0.1-0.1-0.2-0.2-0.2C42,26.2,41.9,26.3,41.9,26.4z"/>
					</g>
					<g>
						<path d="M47.4,9.3c0.1,0,0.2,0,0.2-0.1c0,0,0-0.1,0-0.1C47.5,9,47.4,9,47.3,9c0,0-0.1,0-0.1,0.1C47.2,9.1,47.3,9.2,47.4,9.3
							C47.3,9.3,47.4,9.3,47.4,9.3z"/>
					</g>
					<g>
						<path d="M52.1,2.5c-0.1,0.1-0.1,0.2-0.2,0.3C51.9,2.9,52,3,52,3c0.1,0,0.1,0,0.1-0.1C52.2,2.8,52.2,2.6,52.1,2.5z"/>
					</g>
					<g>
						<path d="M40.9,29.6c0.1,0.1,0.3,0.1,0.4,0.1c-0.1-0.1-0.1-0.2-0.2-0.3C41.1,29.5,41,29.5,40.9,29.6z"/>
					</g>
					<g>
						<path d="M38.2,31.1c-0.1,0-0.2,0-0.3,0c-0.1,0-0.1,0-0.1,0.1c0,0.1,0.1,0.2,0.2,0.2C38.1,31.3,38.2,31.2,38.2,31.1z"/>
					</g>
					<g>
						<path d="M40.3,29.6c0.1,0,0.1,0,0.2-0.1c0,0,0-0.1,0-0.1c0-0.1-0.1-0.1-0.2-0.1c0,0-0.1,0-0.1,0c0,0-0.1,0.1-0.1,0.1
							C40.2,29.5,40.2,29.6,40.3,29.6C40.3,29.6,40.3,29.6,40.3,29.6z"/>
					</g>
					<g>
						<path d="M40.6,28.9c0.1,0,0.1,0,0.2,0c0.1,0,0.1-0.2,0.1-0.2c-0.1-0.1-0.2-0.1-0.3-0.1c-0.1,0-0.1,0-0.1,0.1
							c0,0.1,0,0.1,0.1,0.2C40.5,28.8,40.5,28.8,40.6,28.9z M40.6,28.8c0,0-0.1,0-0.1-0.1c0,0,0-0.1,0-0.1c0.1,0,0.2,0,0.2,0.1
							C40.7,28.7,40.7,28.8,40.6,28.8C40.6,28.8,40.6,28.8,40.6,28.8z"/>
					</g>
					<g>
						<path d="M38.9,14c0.1,0,0.2-0.1,0.2-0.1c0-0.1-0.1-0.2-0.1-0.2c-0.1,0-0.2,0.1-0.2,0.2C38.7,13.9,38.8,14,38.9,14z"/>
					</g>
					<g>
						<path d="M42,29.4c-0.1,0-0.2,0-0.2,0.1c0,0.1,0.1,0.2,0.1,0.2c0.1,0,0.2-0.1,0.2-0.1C42.1,29.5,42.1,29.5,42,29.4z"/>
					</g>
					<g>
						<path d="M48.2,12.9c0.1,0.2,0.2,0.3,0.4,0.2c0,0,0,0,0-0.1c0,0,0,0-0.1,0c0,0-0.1,0-0.1-0.1c0-0.1,0.1-0.1,0.1-0.1
							c0,0,0.1,0,0.1-0.1C48.4,12.7,48.3,12.8,48.2,12.9z"/>
					</g>
					<g>
						<path d="M38.3,26.2c0.1,0,0.1,0.1,0.2,0.1c0-0.1,0.1-0.1,0.1-0.2c0.1-0.1,0.2-0.1,0.3,0c0,0.1,0.1,0.1,0.1,0.2
							c0-0.1,0-0.1,0-0.1c0-0.2-0.2-0.3-0.4-0.2c-0.1,0-0.1,0.1-0.2,0c0,0.1,0,0.1,0,0.1C38.4,26.2,38.3,26.2,38.3,26.2z"/>
					</g>
					<g>
						<path d="M48.2,31.6c0,0.1,0,0.2,0,0.3c0.2,0.1,0.3,0.1,0.4,0.1c-0.1,0-0.1,0-0.1,0c0,0-0.1,0-0.1,0c0,0,0-0.1,0-0.1
							c0,0,0-0.1,0-0.1c0.1,0,0.2,0,0.3,0C48.6,31.6,48.4,31.6,48.2,31.6z"/>
					</g>
					<g>
						<path d="M45.8,15.5c0.1-0.1,0.1-0.2,0-0.4c0,0,0,0.1-0.1,0.1c0,0.1-0.1,0.1-0.1,0.1c-0.1,0-0.1,0-0.1,0c0,0,0,0.1,0.1,0.1
							C45.7,15.4,45.7,15.4,45.8,15.5z"/>
					</g>
					<g>
						<path d="M50.6,9.2c-0.1,0-0.2,0.1-0.2,0.2c0,0.1,0.1,0.2,0.2,0.2c0.1,0,0.2-0.1,0.2-0.2C50.8,9.4,50.7,9.3,50.6,9.2z
							 M50.7,9.4c0,0.1-0.1,0.2-0.2,0.1c-0.1,0-0.1-0.1-0.1-0.1c0-0.1,0.1-0.1,0.1-0.2C50.6,9.3,50.6,9.4,50.7,9.4z"/>
					</g>
					<g>
						<path d="M48.9,15.7c0.1,0.1,0.1,0.1,0.2,0.1c0,0,0-0.1,0.1-0.1c0-0.1,0-0.1,0.1-0.1c0.1,0,0.1,0.1,0.2,0.1c0,0,0,0.1,0.1,0.1
							c0-0.1,0-0.1,0-0.2c0-0.1-0.1-0.1-0.2-0.2c0,0-0.1,0-0.1,0c-0.1,0-0.1,0-0.2,0.1C49.1,15.7,49.1,15.7,48.9,15.7z"/>
					</g>
					<g>
						<path d="M39.8,26.3c0,0,0.1,0,0.1,0c0,0,0.1,0,0.1,0c-0.1,0-0.1-0.1-0.2-0.1c0,0,0.1-0.1,0.1-0.1c-0.1,0-0.1,0-0.2,0
							c-0.1-0.1-0.3,0-0.3,0.1c0,0,0,0.1,0,0.1c0,0,0.1-0.1,0.1-0.1c0.1-0.1,0.1-0.1,0.2,0C39.8,26.2,39.8,26.3,39.8,26.3L39.8,26.3
							z"/>
					</g>
					<g>
						<path d="M50.9,9C51,9.1,51.1,9,51.2,8.9c0,0.1,0.1,0.1,0.1,0.2c0,0,0.1,0.1,0.1,0c0-0.1-0.2-0.2-0.2-0.4
							C51.1,8.8,51,8.9,50.9,9z"/>
					</g>
					<g>
						<path d="M39.3,28.3c0,0,0.1,0.1,0.1,0.1c0,0,0,0.1,0.1,0.1c0.1,0,0.1,0,0.3,0c-0.1,0-0.1,0-0.2-0.1c0.1,0,0.1-0.1,0.1-0.1
							c0,0,0,0,0,0C39.5,28.4,39.4,28.4,39.3,28.3c0-0.1-0.1-0.1-0.2,0c0,0-0.1,0.1-0.1,0.1c0,0,0.1,0,0.1,0
							C39.2,28.4,39.2,28.4,39.3,28.3z"/>
					</g>
					<g>
						<path d="M38.7,10c0.1,0,0.2-0.1,0.2-0.1c0-0.1-0.1-0.1-0.1-0.2c-0.1,0-0.2,0-0.2,0.1C38.5,9.9,38.6,10,38.7,10z"/>
					</g>
					<g>
						<path d="M42.7,28.1c-0.1,0.1-0.2,0.2-0.2,0.3c0,0.1,0,0.1,0,0.2c0,0.1,0.1,0.1,0.2,0.1c0.1,0,0.1-0.1,0.1-0.1
							c0-0.1,0-0.1,0-0.2C42.7,28.2,42.7,28.2,42.7,28.1z M42.6,28.2C42.6,28.2,42.7,28.2,42.6,28.2c0.1,0.1,0.1,0.2,0.1,0.2
							c0,0.1,0,0.1-0.1,0.1c-0.1,0-0.1,0-0.1-0.1C42.6,28.4,42.6,28.3,42.6,28.2z"/>
					</g>
					<g>
						<path d="M38.3,28.2c0.1,0,0.2,0.1,0.2,0.3c0.1-0.1,0-0.2-0.1-0.3c-0.1-0.1-0.2-0.1-0.3,0c0,0,0,0-0.1,0c0,0.1,0,0.1,0,0.1
							c0,0-0.1,0-0.1,0c0.1,0,0.1,0.1,0.2,0.1C38.1,28.4,38.2,28.2,38.3,28.2z"/>
					</g>
					<g>
						<path d="M38.2,13.9c0-0.1-0.1-0.2-0.1-0.2c-0.1,0-0.1,0.1-0.1,0.1c0,0.1,0.1,0.2,0.1,0.2C38.1,14,38.2,13.9,38.2,13.9z"/>
					</g>
					<g>
						<path d="M48.7,17.8c0,0,0,0.1,0,0.1c0,0-0.1,0-0.2,0c0.1,0.1,0.1,0.1,0.2,0.1c0-0.1,0.1-0.1,0.1-0.2c0.1-0.1,0.1-0.1,0.2,0
							c0,0,0.1,0.1,0.1,0.2c0,0,0,0,0,0.1c0.1-0.1,0-0.2,0-0.2C49.1,17.7,49,17.7,48.7,17.8C48.8,17.8,48.8,17.8,48.7,17.8z"/>
					</g>
					<g>
						<path d="M49.8,17.9C50,17.9,50,18,50,18.2c0.1,0,0.1,0,0.2,0c0,0-0.1,0-0.1,0c0,0-0.1,0-0.1,0c0.1,0,0.1-0.1,0.1-0.1
							C50.1,18,50,17.9,49.8,17.9c-0.1-0.1-0.2,0-0.2,0.2c0.1,0,0.1,0,0.1-0.1C49.8,17.9,49.8,17.9,49.8,17.9z"/>
					</g>
					<g>
						<path d="M43.3,13.4c0,0,0.1,0,0.1-0.1c0.1-0.2,0.1-0.3,0.1-0.5c0-0.1-0.1-0.1-0.1,0C43.2,12.8,43.1,13.2,43.3,13.4
							C43.2,13.3,43.2,13.4,43.3,13.4z M43.3,13.3c-0.1-0.1-0.1-0.2,0-0.4c0-0.1,0-0.2,0.1-0.2C43.5,13,43.4,13.2,43.3,13.3z"/>
					</g>
					<g>
						<path d="M50,15.8C50,15.7,50.1,15.7,50,15.8c0.1-0.1,0.1-0.2,0.1-0.2c0.1-0.1,0.1-0.1,0.2,0c0,0.1,0.1,0.1,0.1,0.2
							c0.1,0,0.1,0,0.2,0c0,0-0.1,0-0.1,0c0,0,0,0-0.1-0.1c0,0,0.1-0.1,0.1-0.1c0,0,0,0,0,0c0,0-0.1,0-0.1,0c-0.1-0.1-0.2-0.1-0.2,0
							C50.1,15.5,50,15.6,50,15.8z"/>
					</g>
					<g>
						<path d="M39.5,10c0.1,0,0.2,0,0.2-0.1c0-0.1,0-0.1-0.1-0.2c0,0-0.1,0-0.1,0c-0.1,0-0.1,0-0.1,0.1C39.3,9.9,39.4,10,39.5,10
							C39.5,10,39.5,10,39.5,10z"/>
					</g>
					<g>
						<path d="M42.4,27c0,0,0.1,0,0.2,0c0,0,0-0.1,0-0.1c-0.1-0.1-0.2-0.1-0.4,0c0,0-0.1,0-0.1,0.1c0,0,0,0,0.1,0.1
							C42.3,26.9,42.3,27,42.4,27z"/>
					</g>
					<g>
						<path d="M47.7,25.1c-0.1,0-0.2,0.1-0.2,0.2c0,0.1,0,0.1,0,0.2c0,0.1,0.1,0.1,0.1,0.1c0.1,0,0.1,0,0.1-0.1c0-0.1,0-0.2,0-0.3
							C47.9,25.2,47.8,25.1,47.7,25.1z M47.7,25.6c-0.1-0.1-0.1-0.1-0.1-0.2c0-0.1,0-0.1,0-0.2c0-0.1,0-0.1,0.1-0.1
							c0,0,0.1,0,0.1,0.1C47.9,25.3,47.8,25.5,47.7,25.6z"/>
					</g>
					<g>
						<path d="M42.8,28.9c0,0.1,0.1,0.1,0.2,0.1c0.1,0,0.2,0,0.3,0c0,0,0.1,0,0.1,0c0,0,0-0.1,0-0.1c0,0-0.1,0-0.1,0
							c-0.1,0-0.2,0-0.3-0.1C42.8,28.8,42.8,28.9,42.8,28.9z"/>
					</g>
					<g>
						<path d="M38.9,12.7c-0.1-0.1-0.1-0.1-0.1-0.2c0,0,0-0.1-0.1-0.1c-0.1,0.1-0.2,0.1-0.3,0.2C38.6,12.7,38.7,12.7,38.9,12.7z"/>
					</g>
					<g>
						<path d="M39.6,0.3c0,0.1,0.1,0.2,0.1,0.2c0,0.1,0,0.1-0.1,0.1c-0.1,0-0.1,0-0.2,0c0,0.1,0.1,0.1,0.1,0.1
							c0.3,0,0.3-0.1,0.2-0.3C39.7,0.3,39.7,0.3,39.6,0.3z"/>
					</g>
					<g>
						<path d="M44.6,18.4c0.1-0.1,0.1-0.1,0.4,0c0,0,0,0.1,0.1,0.1c0.1-0.1,0-0.1,0-0.2c0-0.1,0-0.1,0-0.2c0,0-0.1,0.1-0.1,0.1
							c-0.1,0-0.2,0-0.3,0c0-0.1,0-0.1,0-0.1c0,0,0,0,0,0C44.7,18.2,44.6,18.3,44.6,18.4C44.6,18.4,44.6,18.4,44.6,18.4z"/>
					</g>
					<g>
						<path d="M41.1,26.9c-0.1-0.1-0.2-0.2-0.4-0.1c0,0-0.1,0.1-0.1,0.1c0,0,0,0.1,0.1,0.1C40.9,26.9,41,27,41.1,26.9z"/>
					</g>
					<g>
						<path d="M44.3,31.2c-0.1,0-0.2,0.1-0.3,0.1c0,0,0,0.1,0,0.1c0.1-0.1,0.3-0.1,0.4-0.1c-0.1-0.1-0.2-0.2-0.3-0.3c0,0,0,0-0.1,0
							C44.1,31,44.2,31.1,44.3,31.2z"/>
					</g>
					<g>
						<path d="M37,26.8c0-0.2-0.2-0.2-0.3-0.2c-0.1,0.1-0.1,0.1,0,0.2C36.8,26.8,36.9,26.8,37,26.8z"/>
					</g>
					<g>
						<path d="M49.8,12.1c0.2,0,0.3,0,0.5,0c0.1,0,0.2,0,0.3,0.1c0,0,0.1,0,0.1,0c0,0-0.1-0.1-0.1-0.1c-0.1,0-0.3-0.1-0.4-0.1
							c0,0-0.1,0-0.1,0C49.9,12,49.9,12,49.8,12.1z"/>
					</g>
					<g>
						<path d="M39.5,12.5c-0.1,0-0.1,0-0.1,0c0,0-0.1,0.1-0.1,0.1c0,0,0,0.1,0.1,0.1c0.1,0,0.2,0,0.2,0c0,0,0-0.1,0-0.1
							C39.6,12.5,39.5,12.5,39.5,12.5z"/>
					</g>
					<g>
						<path d="M40.7,17.9c0.1,0,0.1,0.1,0.1,0.1c0,0,0.1-0.1,0.1-0.1c0-0.1,0-0.3-0.1-0.4C40.7,17.6,40.7,17.7,40.7,17.9
							c0.1-0.1,0.1-0.2,0.1-0.2c0,0,0,0,0,0C40.8,17.9,40.8,17.9,40.7,17.9z"/>
					</g>
					<g>
						<path d="M43.4,18.2C43.4,18.2,43.4,18.2,43.4,18.2c-0.2-0.1-0.3-0.1-0.5-0.1c0,0-0.1,0-0.1,0.1c0,0,0,0.1,0,0.1
							C43,18.2,43.2,18.3,43.4,18.2C43.4,18.3,43.4,18.3,43.4,18.2z"/>
					</g>
					<g>
						<path d="M47.8,16.3c0-0.1,0-0.1-0.1-0.2c-0.1,0-0.2,0-0.2,0.1c0,0,0,0.1,0,0.1c0.1,0,0.1,0,0.2,0
							C47.7,16.3,47.7,16.3,47.8,16.3z"/>
					</g>
					<g>
						<path d="M44.6,14.5c0.1,0,0.1,0,0.1,0c0.1,0,0.2,0,0.2,0.1c0,0,0,0.1,0,0.1c0,0,0,0,0,0.1c0.1-0.1,0.1-0.1,0.1-0.1
							c-0.1-0.1-0.1-0.2-0.2-0.2C44.8,14.3,44.7,14.4,44.6,14.5z"/>
					</g>
					<g>
						<path d="M50.6,3.9c0.1,0,0.2-0.1,0.3-0.1c0.1,0,0.1,0,0.2,0.1c0,0,0,0.1,0.1,0.1c0,0,0,0,0.1,0.1c0-0.1,0-0.2-0.2-0.4
							C50.7,3.7,50.6,3.8,50.6,3.9z"/>
					</g>
					<g>
						<path d="M47.3,32.2c-0.2,0.1-0.1,0.3,0,0.4c0,0,0.1,0.1,0.1,0.1c0.1,0,0.2,0,0.2-0.1c0-0.1,0-0.1-0.1-0.2
							C47.5,32.4,47.5,32.3,47.3,32.2C47.4,32.2,47.3,32.2,47.3,32.2z M47.3,32.3c0.1,0.1,0.2,0.2,0.3,0.2c-0.1,0.1-0.2,0.1-0.3,0
							C47.2,32.4,47.2,32.4,47.3,32.3z"/>
					</g>
					<g>
						<path d="M41.6,27.1c0.1,0,0.1,0.1,0.2,0c0.1,0,0.1-0.1,0-0.2c0,0.1,0,0.1,0,0.1c0,0,0,0-0.1,0.1C41.7,27,41.7,27,41.6,27.1
							c0-0.1,0-0.1,0-0.2C41.6,26.9,41.6,27,41.6,27.1c-0.1,0-0.1,0-0.2,0c0,0-0.1-0.1,0-0.1c0,0,0,0,0-0.1
							c-0.1,0.1-0.1,0.1-0.1,0.2C41.4,27.1,41.5,27.1,41.6,27.1z"/>
					</g>
					<g>
						<path d="M44.4,29.1C44.2,29,44.1,29,43.9,29c0,0-0.1,0-0.1,0.1c0,0,0,0.1,0.1,0.1c0.1,0,0.2,0,0.4,0
							C44.3,29.2,44.3,29.1,44.4,29.1z"/>
					</g>
					<g>
						<path d="M45.6,14.9c0,0,0.1,0,0.1-0.1c0.1-0.1,0.2-0.1,0.3,0c0,0,0.1,0,0.1,0c0-0.1-0.1-0.2-0.2-0.2
							C45.8,14.6,45.6,14.7,45.6,14.9z"/>
					</g>
					<g>
						<path d="M47.3,13c0.1,0,0.1,0,0.1,0c0.1,0,0.2,0,0.2,0c0.1,0,0.1-0.1,0-0.1c0-0.1-0.1-0.2-0.2-0.3c0,0.1,0.1,0.2,0.1,0.3
							C47.6,13,47.4,12.9,47.3,13z"/>
					</g>
					<g>
						<path d="M39.6,10.3c0.1,0.1,0.3,0.1,0.5,0.1c0-0.1-0.1-0.1-0.2-0.1C39.8,10.2,39.7,10.2,39.6,10.3z"/>
					</g>
					<g>
						<path d="M41.8,12.2C41.8,12.2,41.8,12.2,41.8,12.2c-0.2-0.1-0.3-0.1-0.4-0.1c0,0-0.1,0-0.1,0c0,0,0,0.1,0,0.1
							C41.5,12.3,41.6,12.3,41.8,12.2C41.8,12.2,41.8,12.2,41.8,12.2z"/>
					</g>
					<g>
						<path d="M43.4,25.6c-0.1,0-0.1,0-0.1,0.1c0,0.1,0,0.2,0.1,0.4c0,0,0-0.1,0-0.1C43.4,25.8,43.5,25.7,43.4,25.6z"/>
					</g>
					<g>
						<path d="M39.6,4.9C39.6,4.8,39.6,4.8,39.6,4.9c-0.2-0.1-0.3-0.2-0.4-0.2c0,0-0.1,0-0.1,0c0,0,0,0.1,0,0.1
							C39.3,4.8,39.5,4.9,39.6,4.9z"/>
					</g>
					<g>
						<path d="M40.2,12c0,0.1,0.1,0.1,0.2,0.1c0.1,0,0.2,0,0.3,0c0,0,0,0,0.1,0c0,0,0-0.1,0-0.1C40.6,12,40.4,12,40.2,12
							C40.3,12,40.3,12,40.2,12z"/>
					</g>
					<g>
						<path d="M47.9,4.3C48,4.2,47.9,4,48.1,4c0.1,0,0,0.2,0.1,0.3c0.1,0,0.1-0.1,0.1-0.1c0-0.1,0-0.1-0.1-0.2c0-0.1-0.2-0.1-0.3,0
							c0,0-0.1,0.1-0.1,0.1C47.9,4.2,47.9,4.2,47.9,4.3z"/>
					</g>
					<g>
						<path d="M38.4,30.6c0,0.1,0,0.1,0,0.2c0.1,0,0.1,0.1,0.2,0.1c0,0,0.1,0,0.1,0c0,0,0-0.1,0-0.1c0.1,0,0.1,0,0.2,0
							c-0.1-0.1-0.1-0.1-0.2-0.1c-0.1,0-0.1,0.1-0.2,0.1C38.5,30.7,38.4,30.7,38.4,30.6z"/>
					</g>
					<g>
						<path d="M45.3,0.8c0-0.1,0-0.2,0-0.2c-0.1-0.2-0.2-0.3-0.4-0.2c0,0,0.1,0,0.1,0c0,0,0.1,0,0.1,0c0.1,0,0.1,0,0.2,0.1
							C45.2,0.6,45.2,0.7,45.3,0.8C45.2,0.8,45.2,0.8,45.3,0.8z"/>
					</g>
					<g>
						<path d="M43.3,10.3c-0.1,0.1-0.2,0-0.3,0.1c0.2,0,0.3,0,0.4,0c-0.1-0.1-0.2-0.2-0.4-0.3C43.1,10.2,43.3,10.2,43.3,10.3z"/>
					</g>
					<g>
						<path d="M39.3,10.3C39.3,10.3,39.3,10.3,39.3,10.3c-0.1,0,0,0.1-0.1,0.1c0,0-0.1,0-0.1-0.1c0,0,0,0-0.1,0.1c0,0-0.1,0.1-0.1,0
							c0,0,0-0.1,0-0.1c0,0,0,0,0-0.1c-0.1,0-0.1,0.1-0.1,0.1c0,0.1,0.1,0.1,0.2,0.1c0.1,0,0.1,0,0.2,0
							C39.3,10.5,39.4,10.5,39.3,10.3z"/>
					</g>
					<g>
						<path d="M46.8,26.9c-0.1,0-0.3,0-0.4,0.1c0.1,0.1,0.2,0.1,0.4,0.2c0-0.1,0-0.1,0-0.1c-0.1,0-0.1-0.1-0.2-0.1
							C46.7,26.9,46.8,26.9,46.8,26.9z"/>
					</g>
					<g>
						<path d="M51.2,10.9c-0.1-0.1-0.3-0.2-0.4-0.2c0,0,0,0-0.1,0c0,0,0,0.1,0,0.1c0.1,0,0.2,0.1,0.3,0.1
							C51.1,10.9,51.2,10.9,51.2,10.9z"/>
					</g>
					<g>
						<path d="M46,26.9c-0.2-0.1-0.3-0.2-0.4-0.3c0,0.1,0.2,0.2,0.3,0.3c-0.1,0-0.2,0-0.3,0C45.7,27,45.8,27,46,26.9z"/>
					</g>
					<g>
						<path d="M40.6,4.9c0,0,0-0.1,0-0.1c-0.2-0.1-0.3,0-0.5,0.1C40.3,5,40.4,4.9,40.6,4.9z"/>
					</g>
					<g>
						<path d="M38.3,28.8c0-0.1,0.1-0.2,0-0.4C38.3,28.5,38.3,28.6,38.3,28.8c-0.1-0.1-0.2-0.1-0.2-0.1c0,0,0,0,0,0
							C38.2,28.8,38.3,28.8,38.3,28.8z"/>
					</g>
					<g>
						<path d="M40.6,23.8c0.1,0,0.2,0,0.3,0c0.1,0,0.1,0.1,0.2,0.1c0-0.1-0.1-0.2-0.2-0.2c-0.1,0-0.1-0.1-0.2-0.1
							C40.7,23.7,40.6,23.8,40.6,23.8C40.5,23.8,40.6,23.8,40.6,23.8z"/>
					</g>
					<g>
						<path d="M50,12.7c-0.1,0-0.2,0-0.3-0.1c-0.1-0.1-0.2-0.1-0.4-0.1c0,0,0,0,0,0c0,0,0,0,0,0c0,0,0,0,0,0c0.2,0,0.3,0,0.4,0.1
							C49.8,12.8,49.9,12.8,50,12.7C50,12.8,50,12.7,50,12.7z"/>
					</g>
					<g>
						<path d="M42,0.4c-0.1,0-0.1,0-0.3-0.1c-0.1-0.1-0.2-0.1-0.4-0.1c0,0-0.1,0-0.1,0.1c0,0,0.1,0,0.1,0c0.1,0,0.2,0,0.3,0.1
							c0,0,0.1,0.1,0.1,0.1C41.9,0.5,41.9,0.5,42,0.4z"/>
					</g>
					<g>
						<path d="M44.3,10.2c-0.1,0.1-0.3,0.1-0.4,0.2c0.1,0.1,0.2,0.1,0.3,0.2c0-0.1,0-0.1-0.2-0.2C44.2,10.3,44.3,10.3,44.3,10.2
							C44.3,10.3,44.3,10.2,44.3,10.2z"/>
					</g>
					<g>
						<path d="M40.8,9.2c-0.1,0-0.1,0-0.1,0.1c0,0.1,0,0.2,0,0.3c0.1-0.1,0.1-0.2,0.1-0.2C40.9,9.3,40.9,9.3,40.8,9.2z"/>
					</g>
					<g>
						<path d="M51.9,3.8c-0.2,0.1-0.2,0.1-0.2,0.2C51.7,4,51.8,3.9,51.9,3.8C52,4,52.1,4.1,52.2,4.2C52.2,4,52.2,4,51.9,3.8z"/>
					</g>
					<g>
						<path d="M50.6,1.5c0.1,0.1,0.2,0,0.3,0c0,0,0.1-0.1,0.1-0.2c-0.1,0.1-0.1,0.1-0.2,0.2C50.8,1.5,50.7,1.4,50.6,1.5z"/>
					</g>
					<g>
						<path d="M46.3,6.7c0-0.1-0.1-0.1-0.1-0.2c-0.1,0.1,0,0.2,0,0.3C46.2,6.7,46.3,6.7,46.3,6.7c0,0.1,0.1,0,0.1,0
							c0-0.1,0-0.1,0-0.2C46.4,6.5,46.4,6.6,46.3,6.7z"/>
					</g>
					<g>
						<path d="M49.6,10.7c0.1,0,0.1,0.1,0.1,0.1c0.1,0,0.2,0,0.3-0.1c0,0,0,0,0,0c0,0,0,0,0,0C49.9,10.6,49.8,10.6,49.6,10.7z"/>
					</g>
					<g>
						<path d="M44.2,19.6c-0.1,0-0.2,0.1-0.3,0.1c-0.1,0-0.1,0.1-0.1,0.1c0.1,0,0.1,0.1,0.2,0.1c0,0-0.1,0.1-0.1,0.1
							c0,0,0.1,0,0.1,0.1c0,0.1,0.1,0,0.1,0.1c0,0,0,0.1,0,0.1c0,0.1,0.1,0.2,0.2,0.2c0.1,0,0.2,0,0.3-0.1c0,0,0-0.1,0.1-0.1
							c0,0,0,0.1,0,0.1c0-0.1,0-0.1,0-0.2c0,0,0,0-0.1,0c-0.1,0-0.2-0.1-0.3-0.1c0,0,0-0.1,0-0.1c0,0,0-0.1-0.1-0.1c0,0,0-0.1,0-0.1
							C44.3,19.7,44.2,19.7,44.2,19.6z"/>
					</g>
				</g>
			</g>
			<g>
				<g>
					<path fill="#41404A" d="M40.2,16.5c-0.1-0.1-0.2-0.1-0.3-0.1c0.1-0.6,0-1.1-0.4-1.5c-0.3-0.3-0.6-0.4-1-0.5
						c-0.4,0-0.9,0.1-1.2,0.4c-0.3,0.3-0.5,0.7-0.6,1.1c-0.1,0-0.2,0-0.3,0.1c0.1-0.7,0.4-1.3,1.1-1.6c0.7-0.3,1.5-0.2,2.1,0.3
						C40.2,15,40.4,15.7,40.2,16.5z"/>
				</g>
				<g>
					<path fill="#41404A" d="M39.3,17c0-0.2,0.1-0.4,0.1-0.6c0-0.2,0.1-0.3,0.3-0.2c0,0,0.1,0,0.1,0c0.1,0,0.1,0.2,0.1,0.3
						c-0.1,0.4-0.1,0.8-0.2,1.2c0,0.2-0.1,0.3-0.2,0.2c-0.1,0-0.1,0-0.2,0c-0.1-0.1-0.1-0.2-0.1-0.3C39.2,17.4,39.2,17.2,39.3,17z"
						/>
				</g>
				<g>
					<path fill="#41404A" d="M37.2,16.7c0,0.2-0.1,0.4-0.1,0.6c0,0.2-0.1,0.3-0.3,0.2c-0.1,0-0.1,0-0.1-0.1
						c-0.1-0.1-0.1-0.1-0.1-0.3c0.1-0.4,0.1-0.8,0.2-1.2c0-0.1,0.1-0.2,0.2-0.2c0,0,0.1,0,0.1,0c0.1,0,0.1,0.2,0.1,0.3
						C37.3,16.3,37.3,16.5,37.2,16.7L37.2,16.7z"/>
				</g>
				<g>
					<path fill="#41404A" d="M36.5,17.2c-0.1,0-0.2-0.1-0.3-0.1c-0.1-0.1-0.2-0.3-0.2-0.5c0-0.2,0.1-0.4,0.3-0.6
						c0.1-0.1,0.2-0.1,0.4-0.1C36.7,16.4,36.6,16.8,36.5,17.2z"/>
				</g>
				<g>
					<path fill="#41404A" d="M39.9,16.5c0.1,0,0.2,0.1,0.3,0.1c0.1,0.1,0.2,0.3,0.2,0.5c0,0.2-0.1,0.4-0.2,0.6
						c-0.1,0.1-0.2,0.1-0.4,0.1c0,0,0,0,0,0C39.8,17.3,39.9,16.9,39.9,16.5C39.9,16.5,39.9,16.5,39.9,16.5z"/>
				</g>
			</g>
		</g>
		<g>
			<g>
				<path fill="none" d="M36.9,17.5c-0.1,1.1,1,1.9,1,3c0.8-0.7,1.2-1.7,1.4-2.6"/>
				<path fill="#41404A" d="M37.8,20.8l0-0.2c0.1-0.2-0.2-1.1-0.4-1.5c-0.4-0.6-0.6-1-0.5-1.6l0.1,0c-0.1,0.6,0.1,0.8,0.4,1.3
					c0.2,0.4,0.6,0.9,0.6,1.5c0.3-0.3,0.4-0.5,0.5-0.7c0.4-0.6,0.7-0.9,0.8-1.7l0.1,0c0,1-0.3,1.1-0.8,1.8c-0.1,0.2-0.3,0.5-0.6,0.8
					L37.8,20.8z"/>
			</g>
			<g>
				<path fill="#41404A" d="M37.5,24.1c-1-1.6-0.1-3.1,0.2-3.5c0.1-0.1,0.1-0.2,0.1-0.2l0.2,0.2c0,0-1.3,1.3-0.6,3.2L37.5,24.1z"/>
			</g>
		</g>
	</g>
</g>
</svg>
